<svg width="24" height="24" viewBox="0 0 24 24" fill="none" xmlns="http://www.w3.org/2000/svg">
<path fill-rule="evenodd" clip-rule="evenodd" d="M14.6361 0.182689C14.1917 0 13.6283 0 12.5016 0C11.3748 0 10.8114 0 10.367 0.182689C9.77445 0.426275 9.30367 0.893492 9.05823 1.48156C8.94619 1.75001 8.90234 2.0622 8.88518 2.51759C8.85997 3.18682 8.51415 3.80627 7.92976 4.14112C7.34538 4.47596 6.63193 4.46345 6.03535 4.15051C5.62938 3.93756 5.33503 3.81915 5.04475 3.78122C4.40887 3.69814 3.76578 3.86915 3.25695 4.25664C2.87533 4.54726 2.59363 5.03148 2.03025 5.99992C1.46686 6.96836 1.18517 7.45258 1.12238 7.92589C1.03866 8.55696 1.21098 9.19519 1.60142 9.70018C1.77963 9.93067 2.03009 10.1244 2.41881 10.3668C2.99026 10.7232 3.35795 11.3302 3.35791 12C3.35788 12.6698 2.9902 13.2767 2.4188 13.633C2.03002 13.8755 1.77953 14.0692 1.6013 14.2997C1.21086 14.8047 1.03855 15.443 1.12226 16.074C1.18505 16.5473 1.46674 17.0316 2.03013 18C2.59352 18.9684 2.87521 19.4527 3.25683 19.7433C3.76566 20.1308 4.40875 20.3018 5.04463 20.2187C5.33489 20.1808 5.62923 20.0624 6.03516 19.8494C6.63179 19.5365 7.34528 19.524 7.92971 19.8588C8.51413 20.1937 8.85996 20.8132 8.88519 21.4825C8.90235 21.9378 8.9462 22.25 9.05823 22.5184C9.30367 23.1065 9.77445 23.5737 10.367 23.8173C10.8114 24 11.3748 24 12.5016 24C13.6283 24 14.1917 24 14.6361 23.8173C15.2287 23.5737 15.6995 23.1065 15.9449 22.5184C16.0569 22.25 16.1008 21.9378 16.1179 21.4824C16.1432 20.8132 16.4889 20.1937 17.0733 19.8588C17.6577 19.5239 18.3712 19.5364 18.9679 19.8494C19.3738 20.0623 19.6681 20.1807 19.9584 20.2186C20.5943 20.3017 21.2373 20.1307 21.7462 19.7432C22.1278 19.4526 22.4095 18.9684 22.9729 17.9999C23.5363 17.0315 23.818 16.5473 23.8807 16.074C23.9645 15.4429 23.7921 14.8046 23.4017 14.2997C23.2235 14.0692 22.973 13.8754 22.5842 13.633C22.0128 13.2766 21.6452 12.6696 21.6452 11.9999C21.6453 11.3302 22.0129 10.7233 22.5843 10.367C22.9731 10.1246 23.2236 9.93079 23.4018 9.70026C23.7923 9.19527 23.9646 8.55704 23.8809 7.92597C23.8181 7.45266 23.5364 6.96844 22.973 6C22.4096 5.03156 22.1279 4.54734 21.7463 4.25672C21.2375 3.86923 20.5944 3.69822 19.9585 3.7813C19.6682 3.81923 19.3739 3.93763 18.968 4.15056C18.3713 4.46351 17.6578 4.47602 17.0734 4.14115C16.489 3.80629 16.1432 3.18679 16.1179 2.51753C16.1008 2.06217 16.0569 1.75 15.9449 1.48156C15.6995 0.893492 15.2287 0.426275 14.6361 0.182689ZM12.5016 15.6C14.5049 15.6 16.129 13.9882 16.129 12C16.129 10.0118 14.5049 8.4 12.5016 8.4C10.4982 8.4 8.87415 10.0118 8.87415 12C8.87415 13.9882 10.4982 15.6 12.5016 15.6Z" fill="#9AA4B2"/>
</svg>
