<svg width="24" height="20" viewBox="0 0 24 20" fill="none" xmlns="http://www.w3.org/2000/svg">
<path fill-rule="evenodd" clip-rule="evenodd" d="M0 18.8073C0 18.3494 0.374831 17.9782 0.837209 17.9782H23.1628C23.6252 17.9782 24 18.3494 24 18.8073C24 19.2652 23.6252 19.6364 23.1628 19.6364H0.837209C0.374831 19.6364 0 19.2652 0 18.8073Z" fill="#9AA4B2"/>
<path fill-rule="evenodd" clip-rule="evenodd" d="M2.93434 0.97134C1.95349 1.94268 1.95349 3.50603 1.95349 6.63273V12.16C1.95349 14.2445 1.95349 15.2867 2.60739 15.9343C3.26129 16.5818 4.31373 16.5818 6.4186 16.5818H17.5814C19.6863 16.5818 20.7387 16.5818 21.3926 15.9343C22.0465 15.2867 22.0465 14.2445 22.0465 12.16V6.63273C22.0465 3.50603 22.0465 1.94268 21.0657 0.97134C20.0848 0 18.5062 0 15.3488 0H8.65116C5.49385 0 3.91519 0 2.93434 0.97134ZM7.81395 13.2655C7.81395 12.8076 8.18879 12.4364 8.65116 12.4364H15.3488C15.8112 12.4364 16.186 12.8076 16.186 13.2655C16.186 13.7233 15.8112 14.0945 15.3488 14.0945H8.65116C8.18879 14.0945 7.81395 13.7233 7.81395 13.2655Z" fill="#9AA4B2"/>
</svg>
