<svg width="24" height="24" viewBox="0 0 24 24" fill="none" xmlns="http://www.w3.org/2000/svg">
<g clip-path="url(#clip0_636_21993)">
<path d="M21.0979 19.8252C22.9066 17.7242 24 14.9898 24 12.0001C24 9.0103 22.9066 6.27591 21.0979 4.17493L15.9707 9.3022C16.4941 10.0711 16.8 10.9998 16.8 12.0001C16.8 13.0003 16.4941 13.9291 15.9707 14.6979L21.0979 19.8252Z" fill="#9AA4B2"/>
<path d="M19.8251 21.098C17.7242 22.9067 14.9898 24.0001 12 24.0001C9.01024 24.0001 6.27585 22.9067 4.17487 21.098L9.30214 15.9707C10.071 16.4941 10.9998 16.8001 12 16.8001C13.0002 16.8001 13.929 16.4941 14.6979 15.9707L19.8251 21.098Z" fill="#9AA4B2"/>
<path d="M2.90207 19.8252L8.02935 14.6979C7.50594 13.9291 7.2 13.0003 7.2 12.0001C7.2 10.9998 7.50594 10.0711 8.02935 9.3022L2.90207 4.17493C1.09337 6.27591 0 9.0103 0 12.0001C0 14.9898 1.09337 17.7242 2.90207 19.8252Z" fill="#9AA4B2"/>
<path d="M12 7.20006C10.9998 7.20006 10.071 7.506 9.30214 8.02941L4.17487 2.90214C6.27585 1.09343 9.01024 6.10352e-05 12 6.10352e-05C14.9898 6.10352e-05 17.7242 1.09343 19.8251 2.90214L14.6979 8.02941C13.929 7.506 13.0002 7.20006 12 7.20006Z" fill="#9AA4B2"/>
</g>
<defs>
<clipPath id="clip0_636_21993">
<rect width="24" height="24" fill="white"/>
</clipPath>
</defs>
</svg>
