<svg width="24" height="24" viewBox="0 0 24 24" fill="none" xmlns="http://www.w3.org/2000/svg">
<path d="M7.02439 17.561C3.71306 17.561 2.0574 17.561 1.0287 16.5323C0.362197 15.8658 0.127527 14.9361 0.0449012 13.4634H23.3697C23.2871 14.9361 23.0524 15.8658 22.3859 16.5323C21.3572 17.561 19.7016 17.561 16.3902 17.561H12.5854V22.2439H16.3902C16.8752 22.2439 17.2683 22.637 17.2683 23.122C17.2683 23.6069 16.8752 24 16.3902 24H7.02439C6.53946 24 6.14634 23.6069 6.14634 23.122C6.14634 22.637 6.53946 22.2439 7.02439 22.2439H10.8293V17.561H7.02439Z" fill="#9AA4B2"/>
<path d="M9.36585 0H14.0488C18.4639 0 20.6714 0 22.043 1.3716C23.4146 2.7432 23.4146 4.95075 23.4146 9.36585V10.5366C23.4146 11.1824 23.4146 11.7652 23.407 12.2927H0.0076307C-4.79745e-08 11.7652 0 11.1824 0 10.5366V9.36585C0 4.95075 0 2.7432 1.3716 1.3716C2.74319 0 4.95075 0 9.36585 0Z" fill="#9AA4B2"/>
</svg>
