<svg width="17" height="17" viewBox="0 0 17 17" fill="none" xmlns="http://www.w3.org/2000/svg">
<path d="M7.29248 5C8.08277 5.00009 8.94013 5.26093 9.54834 5.86914C9.87378 6.19458 9.87378 6.7229 9.54834 7.04834C9.2229 7.37378 8.69458 7.37378 8.36914 7.04834C8.14418 6.82338 7.75191 6.66757 7.29248 6.66748C6.83288 6.66748 6.43962 6.82332 6.2146 7.04834L2.04834 11.2146C1.82332 11.4396 1.66748 11.8329 1.66748 12.2925C1.66757 12.7519 1.82338 13.1442 2.04834 13.3691L2.88086 14.2029C3.10588 14.4279 3.49914 14.5837 3.95874 14.5837C4.41834 14.5837 4.8116 14.4279 5.03662 14.2029L6.70288 12.5366C7.02832 12.2112 7.55542 12.2112 7.88086 12.5366C8.2063 12.8621 8.2063 13.3892 7.88086 13.7146L6.2146 15.3809C5.60629 15.9892 4.74914 16.25 3.95874 16.25C3.16834 16.25 2.31119 15.9892 1.70288 15.3809L0.869141 14.5483C0.260934 13.9401 8.93842e-05 13.0828 0 12.2925C0 11.5023 0.26112 10.6449 0.869141 10.0366L5.03662 5.86914C5.64491 5.26112 6.50226 5 7.29248 5ZM12.2925 0C13.0828 8.93842e-05 13.9401 0.260934 14.5483 0.869141L15.3809 1.70288C15.9892 2.31119 16.25 3.16834 16.25 3.95874C16.25 4.74914 15.9892 5.60629 15.3809 6.2146L11.2146 10.3809C10.6063 10.9892 9.74914 11.25 8.95874 11.25C8.16834 11.25 7.31119 10.9892 6.70288 10.3809C6.37765 10.0554 6.37751 9.52825 6.70288 9.20288C7.02825 8.87751 7.55541 8.87765 7.88086 9.20288C8.10588 9.4279 8.49914 9.58374 8.95874 9.58374C9.41834 9.58374 9.8116 9.4279 10.0366 9.20288L14.2029 5.03662C14.4279 4.8116 14.5837 4.41834 14.5837 3.95874C14.5837 3.49914 14.4279 3.10588 14.2029 2.88086L13.3691 2.04834C13.1442 1.82338 12.7519 1.66757 12.2925 1.66748C11.8329 1.66748 11.4396 1.82332 11.2146 2.04834L9.54834 3.7146C9.2229 4.04004 8.69458 4.04004 8.36914 3.7146C8.04404 3.38928 8.04418 2.86202 8.36914 2.53662L10.0366 0.869141C10.6449 0.26112 11.5023 0 12.2925 0Z" fill="#0D121C"/>
</svg>
