<svg width="212" height="61" viewBox="0 0 212 61" fill="none" xmlns="http://www.w3.org/2000/svg">
<path d="M0 41.5327C0 41.0591 0.383941 40.6751 0.857556 40.6751H5.64118C6.11479 40.6751 6.49873 41.0591 6.49873 41.5327V59.5158C6.49873 59.9894 6.11479 60.3733 5.64118 60.3733H0.857556C0.383941 60.3733 0 59.9894 0 59.5158V41.5327Z" fill="#1570EF"/>
<path d="M36.5524 40.6751H30.686C30.5114 40.6751 30.3692 40.8169 30.3692 40.9918V54.1372C30.3692 54.2447 30.3951 54.3788 30.4409 54.5435L20.6789 40.8081C20.6194 40.7247 20.523 40.6751 20.4205 40.6751H10.8204C10.6462 40.6751 10.5041 40.8169 10.5041 40.9918V60.057C10.5041 60.2319 10.6462 60.3733 10.8204 60.3733H16.6872C16.8614 60.3733 17.0036 60.2319 17.0036 60.057V46.9109C17.0036 46.8144 16.9838 46.7001 16.9457 46.561L26.6951 60.2407C26.7545 60.3242 26.8498 60.3733 26.9524 60.3733H36.5524C36.7266 60.3733 36.8691 60.2319 36.8691 60.057V40.9918C36.8691 40.8169 36.7266 40.6751 36.5524 40.6751Z" fill="#1570EF"/>
<path d="M64.812 40.6751H42.1195C41.9454 40.6751 41.8032 40.8169 41.8032 40.9918V45.9245C41.8032 46.0994 41.9454 46.2412 42.1195 46.2412H50.2297V60.057C50.2297 60.2319 50.3719 60.3733 50.5461 60.3733H56.4114C56.5859 60.3733 56.7281 60.2319 56.7281 60.057V46.2412H64.812C64.9861 46.2412 65.1287 46.0994 65.1287 45.9245V40.9918C65.1287 40.8169 64.9861 40.6751 64.812 40.6751Z" fill="#1570EF"/>
<path d="M75.3618 52.7472H85.2053C86.1265 52.7472 86.5953 52.9412 86.5953 54.0042C86.5953 55.0176 85.6234 55.127 85.2053 55.127H75.3618V52.7472ZM85.4454 47.8477H75.3618V45.9211H85.4454C86.2626 45.9211 86.5953 46.1997 86.5953 46.8842C86.5953 47.3602 86.4593 47.8477 85.4454 47.8477ZM90.7962 50.2473C91.8116 49.4992 92.4015 48.1012 92.4015 46.378C92.4015 41.1161 89.2095 40.6751 86.218 40.6751H69.1797C69.0056 40.6751 68.8634 40.8169 68.8634 40.9918V60.057C68.8634 60.2319 69.0056 60.3737 69.1797 60.3737H86.9121C91.3031 60.3737 93.0937 58.7524 93.0937 54.7771C93.0937 52.6199 92.341 51.1323 90.7962 50.2473Z" fill="#1570EF"/>
<path d="M115.602 50.5374C115.602 55.074 115.602 55.074 109.173 55.074C102.77 55.074 102.77 55.074 102.77 50.5374C102.77 45.974 102.77 45.974 109.199 45.974C115.602 45.974 115.602 45.974 115.602 50.5374ZM109.173 40.4079C96.6284 40.4079 96.2697 41.2663 96.2697 50.5374C96.2697 59.7845 96.6284 60.6401 109.173 60.6401C121.742 60.6401 122.102 59.7845 122.102 50.5374C122.102 41.2663 121.742 40.4079 109.173 40.4079Z" fill="#1570EF"/>
<path d="M142 51.6343H135.77L138.62 45.5746H139.15L142 51.6343ZM144.168 40.8508C144.115 40.7433 144.005 40.6751 143.885 40.6751H133.886C133.765 40.6751 133.655 40.7433 133.602 40.8508L124.136 59.916C124.087 60.0143 124.093 60.1305 124.149 60.2239C124.208 60.3165 124.309 60.3737 124.419 60.3737H131.272C131.386 60.3737 131.491 60.3131 131.547 60.214L133.27 57.2004H144.527L146.251 60.214C146.306 60.3131 146.412 60.3737 146.525 60.3737H153.377C153.487 60.3737 153.589 60.3165 153.647 60.2239C153.704 60.1305 153.71 60.0143 153.66 59.916L144.168 40.8508Z" fill="#1570EF"/>
<path d="M162.729 46.2412H171.824C172.8 46.2412 173.294 46.4935 173.294 47.8709C173.294 49.2263 172.8 49.4744 171.824 49.4744H162.729V46.2412ZM179.794 46.5381C179.794 42.3193 178.061 40.6751 173.611 40.6751H156.545C156.371 40.6751 156.229 40.8169 156.229 40.9918V60.057C156.229 60.2319 156.371 60.3733 156.545 60.3733H162.412C162.586 60.3733 162.729 60.2319 162.729 60.057V55.0405H171.691C173.217 55.0405 173.294 56.376 173.294 56.6439V60.057C173.294 60.2319 173.437 60.3733 173.611 60.3733H179.478C179.652 60.3733 179.794 60.2319 179.794 60.057V55.7906C179.794 53.4088 179.178 52.6797 177.594 51.9194C179.186 51.0393 179.794 49.4942 179.794 46.5381Z" fill="#1570EF"/>
<path d="M190.882 46.2412H200.138C202.285 46.2412 203.048 46.8903 203.048 50.5374C203.048 53.8898 202.422 54.8072 200.138 54.8072H190.882V46.2412ZM201.124 40.6751H184.699C184.524 40.6751 184.382 40.8169 184.382 40.9918V60.057C184.382 60.2319 184.524 60.3733 184.699 60.3733H201.124C208.274 60.3733 209.547 57.7965 209.547 50.5374C209.547 43.1373 208.33 40.6751 201.124 40.6751Z" fill="#1570EF"/>
<path d="M185.967 16.1601V14.1542H184.108V12.8744H185.967V10.9218H187.246V12.8744H189.172V14.1542H187.246V16.1601H185.967Z" fill="#1570EF"/>
<path d="M181.495 18.7968H179.913V7.99316H181.495V18.7968ZM192.891 18.7968H191.309V7.99316H192.891V18.7968ZM194.653 11.476H203.715V12.8012H194.653V11.476ZM194.653 14.5231H203.715V15.8484H194.653V14.5231Z" fill="#1570EF"/>
<path d="M210.753 35.1193L203.074 20.406C202.75 19.787 201.99 19.545 201.365 19.869L200.058 20.5512C199.761 20.7071 199.536 20.9743 199.436 21.2944C199.336 21.6146 199.367 21.9622 199.521 22.2602L207.201 36.9736C207.357 37.2712 207.624 37.4949 207.944 37.5956C208.068 37.6348 208.196 37.6539 208.324 37.6539C208.527 37.6539 208.727 37.6055 208.91 37.5098L210.216 36.8276C210.835 36.5044 211.075 35.7394 210.753 35.1193Z" fill="#1570EF"/>
<path d="M206.515 0H175.706C172.941 0 170.691 2.24946 170.691 5.01383V23.7158C170.691 26.4801 172.941 28.7296 175.706 28.7296H198.365C198.531 28.7296 198.685 28.6431 198.77 28.5009C198.857 28.3584 198.863 28.1823 198.785 28.0352L197.793 26.1356C197.712 25.9786 197.55 25.8802 197.373 25.8802H175.706C174.513 25.8802 173.54 24.9091 173.54 23.7158V5.01383C173.54 3.8205 174.513 2.84937 175.706 2.84937H206.515C207.709 2.84937 208.681 3.8205 208.681 5.01383V24.9503C208.661 26.1969 209.863 26.474 210.125 26.474C210.125 26.474 211.53 26.3353 211.53 24.9503V5.01383C211.53 2.24946 209.281 0 206.515 0Z" fill="#1570EF"/>
</svg>
