<svg width="110" height="31" viewBox="0 0 110 31" fill="none" xmlns="http://www.w3.org/2000/svg">
<path d="M0 21.232C0 20.9899 0.199657 20.7936 0.445947 20.7936H2.93353C3.17982 20.7936 3.37948 20.9899 3.37948 21.232V30.4252C3.37948 30.6673 3.17982 30.8636 2.93353 30.8636H0.445947C0.199657 30.8636 0 30.6673 0 30.4252V21.232Z" fill="#1570EF"/>
<path d="M19.008 20.7936H15.9573C15.8666 20.7936 15.7926 20.8661 15.7926 20.9556V27.6756C15.7926 27.7306 15.8061 27.7992 15.8299 27.8833L10.7534 20.8616C10.7225 20.819 10.6724 20.7936 10.6191 20.7936H5.62685C5.53627 20.7936 5.46234 20.8661 5.46234 20.9556V30.7019C5.46234 30.7913 5.53627 30.8636 5.62685 30.8636H8.67771C8.76829 30.8636 8.84222 30.7913 8.84222 30.7019V23.9814C8.84222 23.9321 8.83191 23.8737 8.81209 23.8026L13.882 30.7958C13.9129 30.8385 13.9625 30.8636 14.0158 30.8636H19.008C19.0986 30.8636 19.1727 30.7913 19.1727 30.7019V20.9556C19.1727 20.8661 19.0986 20.7936 19.008 20.7936Z" fill="#1570EF"/>
<path d="M33.7036 20.7936H21.903C21.8125 20.7936 21.7385 20.8661 21.7385 20.9556V23.4772C21.7385 23.5666 21.8125 23.6391 21.903 23.6391H26.1205V30.7019C26.1205 30.7913 26.1944 30.8636 26.285 30.8636H29.3351C29.4259 30.8636 29.4998 30.7913 29.4998 30.7019V23.6391H33.7036C33.7941 23.6391 33.8683 23.5666 33.8683 23.4772V20.9556C33.8683 20.8661 33.7941 20.7936 33.7036 20.7936Z" fill="#1570EF"/>
<path d="M39.1897 26.965H44.3086C44.7876 26.965 45.0314 27.0642 45.0314 27.6076C45.0314 28.1257 44.526 28.1816 44.3086 28.1816H39.1897V26.965ZM44.4334 24.4604H39.1897V23.4754H44.4334C44.8584 23.4754 45.0314 23.6179 45.0314 23.9678C45.0314 24.2112 44.9606 24.4604 44.4334 24.4604ZM47.2159 25.6871C47.7439 25.3046 48.0507 24.5899 48.0507 23.709C48.0507 21.0191 46.3908 20.7936 44.8352 20.7936H35.9749C35.8843 20.7936 35.8104 20.8661 35.8104 20.9556V30.7019C35.8104 30.7913 35.8843 30.8638 35.9749 30.8638H45.1961C47.4795 30.8638 48.4107 30.035 48.4107 28.0028C48.4107 26.9 48.0192 26.1395 47.2159 25.6871Z" fill="#1570EF"/>
<path d="M60.1155 25.8353C60.1155 28.1545 60.1155 28.1545 56.7721 28.1545C53.4423 28.1545 53.4423 28.1545 53.4423 25.8353C53.4423 23.5025 53.4423 23.5025 56.7856 23.5025C60.1155 23.5025 60.1155 23.5025 60.1155 25.8353ZM56.7721 20.6571C50.2488 20.6571 50.0623 21.0958 50.0623 25.8353C50.0623 30.5626 50.2488 31 56.7721 31C63.3083 31 63.4956 30.5626 63.4956 25.8353C63.4956 21.0958 63.3083 20.6571 56.7721 20.6571Z" fill="#1570EF"/>
<path d="M73.8431 26.3961H70.6034L72.0855 23.2983H72.3608L73.8431 26.3961ZM74.9705 20.8835C74.9427 20.8285 74.8856 20.7936 74.8232 20.7936H69.6233C69.5608 20.7936 69.5036 20.8285 69.476 20.8835L64.5532 30.6298C64.5276 30.6801 64.5308 30.7395 64.5603 30.7872C64.5906 30.8346 64.6433 30.8638 64.7004 30.8638H68.2644C68.3237 30.8638 68.3782 30.8328 68.4071 30.7822L69.303 29.2416H75.157L76.0534 30.7822C76.0824 30.8328 76.1371 30.8638 76.1961 30.8638H79.7593C79.8166 30.8638 79.8693 30.8346 79.8997 30.7872C79.9292 30.7395 79.9323 30.6801 79.9066 30.6298L74.9705 20.8835Z" fill="#1570EF"/>
<path d="M84.6223 23.6391H89.3521C89.8595 23.6391 90.1167 23.7681 90.1167 24.4722C90.1167 25.1651 89.8595 25.2919 89.3521 25.2919H84.6223V23.6391ZM93.4968 23.7909C93.4968 21.6342 92.5952 20.7936 90.2814 20.7936H81.4069C81.3161 20.7936 81.2422 20.8661 81.2422 20.9556V30.7019C81.2422 30.7913 81.3161 30.8636 81.4069 30.8636H84.4576C84.5484 30.8636 84.6223 30.7913 84.6223 30.7019V28.1374H89.2827C90.0763 28.1374 90.1167 28.8201 90.1167 28.9571V30.7019C90.1167 30.7913 90.1907 30.8636 90.2814 30.8636H93.3321C93.4227 30.8636 93.4968 30.7913 93.4968 30.7019V28.5208C93.4968 27.3033 93.1765 26.9305 92.3526 26.5418C93.1803 26.092 93.4968 25.3021 93.4968 23.7909Z" fill="#1570EF"/>
<path d="M99.2626 23.6391H104.076C105.193 23.6391 105.589 23.9709 105.589 25.8353C105.589 27.5492 105.264 28.0182 104.076 28.0182H99.2626V23.6391ZM104.589 20.7936H96.0472C95.9565 20.7936 95.8825 20.8661 95.8825 20.9556V30.7019C95.8825 30.7913 95.9565 30.8636 96.0472 30.8636H104.589C108.307 30.8636 108.969 29.5463 108.969 25.8353C108.969 22.0523 108.336 20.7936 104.589 20.7936Z" fill="#1570EF"/>
<path d="M96.7069 8.26126V7.23581H95.7401V6.58153H96.7069V5.58336H97.3718V6.58153H98.3733V7.23581H97.3718V8.26126H96.7069Z" fill="#1570EF"/>
<path d="M94.381 9.60917H93.5583V4.08621H94.381V9.60917ZM100.308 9.60917H99.4848V4.08621H100.308V9.60917ZM101.223 5.86666H105.936V6.54413H101.223V5.86666ZM101.223 7.42442H105.936V8.10188H101.223V7.42442Z" fill="#1570EF"/>
<path d="M109.596 17.9534L105.603 10.4318C105.434 10.1154 105.039 9.99165 104.714 10.1573L104.034 10.506C103.88 10.5857 103.763 10.7223 103.711 10.886C103.659 11.0496 103.675 11.2273 103.755 11.3797L107.749 18.9014C107.83 19.0535 107.969 19.1679 108.135 19.2193C108.2 19.2394 108.266 19.2491 108.333 19.2491C108.438 19.2491 108.542 19.2244 108.638 19.1755L109.317 18.8267C109.639 18.6615 109.764 18.2705 109.596 17.9534Z" fill="#1570EF"/>
<path d="M107.392 0H91.3708C89.9328 0 88.7631 1.14995 88.7631 2.56313V12.1238C88.7631 13.537 89.9328 14.6869 91.3708 14.6869H103.154C103.24 14.6869 103.32 14.6427 103.365 14.57C103.41 14.4972 103.413 14.4071 103.372 14.3319L102.857 13.3608C102.814 13.2806 102.73 13.2303 102.638 13.2303H91.3708C90.7502 13.2303 90.2446 12.7338 90.2446 12.1238V2.56313C90.2446 1.95309 90.7502 1.45663 91.3708 1.45663H107.392C108.013 1.45663 108.518 1.95309 108.518 2.56313V12.7549C108.508 13.3922 109.133 13.5339 109.269 13.5339C109.269 13.5339 110 13.4629 110 12.7549V2.56313C110 1.14995 108.83 0 107.392 0Z" fill="#1570EF"/>
</svg>
