<svg width="16" height="16" viewBox="0 0 16 16" fill="none" xmlns="http://www.w3.org/2000/svg">
<path fill-rule="evenodd" clip-rule="evenodd" d="M13.6849 6.91552C13.4378 6.48755 12.9849 6.34686 12.5526 6.28641C12.1168 6.22548 11.5336 6.22549 10.8281 6.22552L10.788 6.22552C10.3679 6.22552 10.0932 6.22137 9.89315 6.19356C9.71219 6.1684 9.65465 6.13116 9.63011 6.10944C9.61211 6.0907 9.58009 6.04688 9.55827 5.8889C9.53254 5.70263 9.53143 5.4472 9.53143 5.03782V4.78816C9.53144 3.72981 9.53145 2.88199 9.45 2.27753C9.37354 1.71015 9.19181 1.07292 8.56235 0.880027C7.94395 0.690519 7.42528 1.09689 7.02211 1.51583C6.59262 1.96213 6.08243 2.65243 5.44364 3.51672L3.35232 6.34626C2.94543 6.89673 2.60623 7.35562 2.40413 7.73508C2.20154 8.11546 2.0541 8.56709 2.27882 9.01765L2.2796 9.01931L2.28197 9.02413L2.28466 9.02946L2.28731 9.03457L2.29021 9.04002L2.29316 9.04545L2.29595 9.05047L2.2989 9.05564L2.3016 9.06026L2.30259 9.06189C2.5476 9.48621 2.99851 9.63475 3.43474 9.70135C3.88429 9.76999 4.48415 9.77439 5.21164 9.77439C5.63605 9.77439 5.90666 9.77534 6.10541 9.80068C6.28098 9.82307 6.33348 9.85758 6.35599 9.87748C6.37593 9.8983 6.41089 9.94693 6.43554 10.1107C6.46375 10.298 6.46818 10.5574 6.46817 10.9621L6.46817 11.2117C6.46814 12.27 6.46812 13.1179 6.54956 13.7223C6.62601 14.2897 6.80774 14.9269 7.43719 15.1199C8.05559 15.3094 8.57428 14.903 8.97745 14.4841C9.40695 14.0378 9.91715 13.3474 10.556 12.4831L12.6222 9.68759C13.0427 9.11863 13.3886 8.64329 13.5925 8.24768C13.7921 7.86051 13.9314 7.40625 13.7087 6.95982L13.708 6.95821L13.7056 6.95336L13.7029 6.94801L13.7002 6.94288L13.6973 6.9374L13.6944 6.93196L13.6916 6.92692L13.6886 6.92173L13.6859 6.91709L13.6849 6.91552ZM7.74266 2.20924C7.36401 2.6027 6.89217 3.23931 6.22301 4.14468L4.18158 6.90671C3.74312 7.49994 3.44976 7.8991 3.28675 8.20517C3.20741 8.35414 3.17763 8.44812 3.16915 8.50501C3.16391 8.54014 3.1671 8.55601 3.17129 8.56617C3.18741 8.58994 3.25743 8.66269 3.58567 8.71281C3.94427 8.76756 4.45989 8.77439 5.21164 8.77439L5.24229 8.77439C5.62705 8.77436 5.96229 8.77434 6.23188 8.80871C6.52066 8.84553 6.80752 8.92926 7.04504 9.15264L7.04892 9.1563L7.05273 9.16003C7.28607 9.38907 7.38092 9.67306 7.42439 9.96174C7.46594 10.2376 7.46818 10.577 7.46817 10.9621L7.46817 11.1685C7.46816 12.2798 7.46928 13.0594 7.54061 13.5888C7.57612 13.8524 7.6239 14.007 7.66965 14.0934C7.70393 14.1581 7.72367 14.1623 7.72921 14.1635L7.7302 14.1637L7.73121 14.1641C7.73819 14.1665 7.76277 14.175 7.83855 14.1368C7.93322 14.0892 8.06845 13.9865 8.25691 13.7906C8.63556 13.3972 9.10741 12.7606 9.77658 11.8552L11.818 9.09321C12.254 8.50335 12.5445 8.09835 12.7037 7.78944C12.8402 7.52468 12.8254 7.43502 12.8163 7.41121C12.8013 7.38934 12.734 7.32151 12.4141 7.27678C12.056 7.22671 11.5437 7.22552 10.788 7.22552C10.386 7.22552 10.0375 7.22324 9.75544 7.18403C9.46422 7.14354 9.17668 7.05588 8.94123 6.83444L8.93735 6.83078L8.93354 6.82705C8.69807 6.59592 8.60725 6.31229 8.56767 6.02571C8.53137 5.76282 8.53139 5.43728 8.53142 5.07005L8.53143 4.83135C8.53143 3.72009 8.53029 2.94045 8.45896 2.41108C8.42344 2.14748 8.37566 1.99286 8.32991 1.90651C8.29563 1.8418 8.27589 1.83757 8.27035 1.83638L8.26935 1.83614L8.26835 1.8358C8.26136 1.83339 8.23679 1.82491 8.16101 1.86305C8.06634 1.91068 7.93111 2.01341 7.74266 2.20924Z" fill="#0D121C"/>
</svg>
