<svg width="16" height="16" viewBox="0 0 16 16" fill="none" xmlns="http://www.w3.org/2000/svg">
<path d="M1.33301 4.33337C1.33301 2.91916 1.33301 2.21205 1.77235 1.77271C2.21169 1.33337 2.91879 1.33337 4.33301 1.33337C5.74722 1.33337 6.45433 1.33337 6.89367 1.77271C7.33301 2.21205 7.33301 2.91916 7.33301 4.33337C7.33301 5.74759 7.33301 6.45469 6.89367 6.89403C6.45433 7.33337 5.74722 7.33337 4.33301 7.33337C2.91879 7.33337 2.21169 7.33337 1.77235 6.89403C1.33301 6.45469 1.33301 5.74759 1.33301 4.33337Z" fill="#0D121C"/>
<path d="M8.66634 11.6667C8.66634 10.2525 8.66634 9.54539 9.10568 9.10605C9.54502 8.66671 10.2521 8.66671 11.6663 8.66671C13.0806 8.66671 13.7877 8.66671 14.227 9.10605C14.6663 9.54539 14.6663 10.2525 14.6663 11.6667C14.6663 13.0809 14.6663 13.788 14.227 14.2274C13.7877 14.6667 13.0806 14.6667 11.6663 14.6667C10.2521 14.6667 9.54502 14.6667 9.10568 14.2274C8.66634 13.788 8.66634 13.0809 8.66634 11.6667Z" fill="#0D121C"/>
<path d="M1.33301 11.6667C1.33301 10.2525 1.33301 9.54539 1.77235 9.10605C2.21169 8.66671 2.91879 8.66671 4.33301 8.66671C5.74722 8.66671 6.45433 8.66671 6.89367 9.10605C7.33301 9.54539 7.33301 10.2525 7.33301 11.6667C7.33301 13.0809 7.33301 13.788 6.89367 14.2274C6.45433 14.6667 5.74722 14.6667 4.33301 14.6667C2.91879 14.6667 2.21169 14.6667 1.77235 14.2274C1.33301 13.788 1.33301 13.0809 1.33301 11.6667Z" fill="#0D121C"/>
<path d="M8.66634 4.33337C8.66634 2.91916 8.66634 2.21205 9.10568 1.77271C9.54502 1.33337 10.2521 1.33337 11.6663 1.33337C13.0806 1.33337 13.7877 1.33337 14.227 1.77271C14.6663 2.21205 14.6663 2.91916 14.6663 4.33337C14.6663 5.74759 14.6663 6.45469 14.227 6.89403C13.7877 7.33337 13.0806 7.33337 11.6663 7.33337C10.2521 7.33337 9.54502 7.33337 9.10568 6.89403C8.66634 6.45469 8.66634 5.74759 8.66634 4.33337Z" fill="#0D121C"/>
</svg>
