<svg width="16" height="16" viewBox="0 0 16 16" fill="none" xmlns="http://www.w3.org/2000/svg">
<path d="M2.13379 12.2666H13.8671H2.13379Z" fill="#0D121C"/>
<path d="M13.8672 11.7333C14.1617 11.7333 14.4003 11.972 14.4004 12.2665C14.4004 12.561 14.1617 12.7996 13.8672 12.7997H2.13379C1.83924 12.7997 1.60059 12.561 1.60059 12.2665C1.60066 11.972 1.83928 11.7333 2.13379 11.7333H13.8672ZM13.8672 7.46667C14.1617 7.46671 14.4004 7.70538 14.4004 7.99988C14.4004 8.29441 14.1617 8.53305 13.8672 8.53308H2.13379C1.83924 8.53308 1.60059 8.29443 1.60059 7.99988C1.60062 7.70536 1.83926 7.46667 2.13379 7.46667H13.8672ZM13.8672 3.20007C14.1617 3.20011 14.4004 3.43875 14.4004 3.73328C14.4004 4.02781 14.1617 4.26644 13.8672 4.26648H2.13379C1.83924 4.26648 1.60059 4.02783 1.60059 3.73328C1.60059 3.43872 1.83924 3.20007 2.13379 3.20007H13.8672Z" fill="#0D121C"/>
</svg>
