<svg width="16" height="16" viewBox="0 0 16 16" fill="none" xmlns="http://www.w3.org/2000/svg">
<path fill-rule="evenodd" clip-rule="evenodd" d="M8.47795 2.5006C8.21249 2.2205 7.78686 2.2205 7.5214 2.5006C7.1403 2.90271 6.70593 3.40525 6.36996 3.9142C6.02156 4.44197 5.83301 4.89729 5.83301 5.22229C5.83301 6.4997 6.8221 7.50007 7.99967 7.50007C9.17725 7.50007 10.1663 6.4997 10.1663 5.22229C10.1663 4.89729 9.97779 4.44197 9.62939 3.9142C9.29342 3.40525 8.85905 2.90271 8.47795 2.5006ZM6.79559 1.8127C7.45545 1.11647 8.5439 1.11647 9.20376 1.8127C9.60419 2.23521 10.0826 2.78554 10.464 3.36329C10.8329 3.92222 11.1663 4.5874 11.1663 5.22229C11.1663 7.01312 9.76762 8.50007 7.99967 8.50007C6.23173 8.50007 4.83301 7.01312 4.83301 5.22229C4.83301 4.5874 5.16643 3.92222 5.5354 3.36329C5.91678 2.78554 6.39516 2.23521 6.79559 1.8127ZM4.47795 9.16726C4.21249 8.88717 3.78686 8.88717 3.5214 9.16726C3.1403 9.56937 2.70593 10.0719 2.36996 10.5809C2.02156 11.1086 1.83301 11.564 1.83301 11.889C1.83301 13.1664 2.8221 14.1667 3.99967 14.1667C5.17725 14.1667 6.16634 13.1664 6.16634 11.889C6.16634 11.564 5.97779 11.1086 5.62939 10.5809C5.29342 10.0719 4.85905 9.56937 4.47795 9.16726ZM2.79559 8.47937C3.45545 7.78314 4.5439 7.78314 5.20376 8.47937C5.60419 8.90187 6.08256 9.4522 6.46395 10.03C6.83292 10.5889 7.16634 11.2541 7.16634 11.889C7.16634 13.6798 5.76762 15.1667 3.99967 15.1667C2.23173 15.1667 0.833008 13.6798 0.833008 11.889C0.833008 11.2541 1.16643 10.5889 1.5354 10.03C1.91678 9.4522 2.39516 8.90187 2.79559 8.47937ZM12.4779 9.16726C12.2125 8.88717 11.7869 8.88717 11.5214 9.16726C11.1403 9.56937 10.7059 10.0719 10.37 10.5809C10.0216 11.1086 9.83301 11.564 9.83301 11.889C9.83301 13.1664 10.8221 14.1667 11.9997 14.1667C13.1773 14.1667 14.1663 13.1664 14.1663 11.889C14.1663 11.564 13.9778 11.1086 13.6294 10.5809C13.2934 10.0719 12.859 9.56937 12.4779 9.16726ZM10.7956 8.47937C11.4555 7.78314 12.5439 7.78314 13.2038 8.47937C13.6042 8.90187 14.0826 9.4522 14.464 10.03C14.8329 10.5889 15.1663 11.2541 15.1663 11.889C15.1663 13.6798 13.7676 15.1667 11.9997 15.1667C10.2317 15.1667 8.83301 13.6798 8.83301 11.889C8.83301 11.2541 9.16643 10.5889 9.5354 10.03C9.91678 9.4522 10.3952 8.90187 10.7956 8.47937Z" fill="#0D121C"/>
</svg>
