<svg width="16" height="16" viewBox="0 0 16 16" fill="none" xmlns="http://www.w3.org/2000/svg">
<g clip-path="url(#clip0_251_360)">
<path d="M6.22939 5.48727C6.02436 5.28223 5.69193 5.28223 5.4869 5.48727C5.28187 5.6923 5.28187 6.02472 5.4869 6.22976C5.69193 6.43479 6.02436 6.43479 6.22939 6.22976C6.43443 6.02472 6.43443 5.6923 6.22939 5.48727Z" fill="#0D121C"/>
<path d="M8.08563 6.10601C7.88059 5.90098 7.54817 5.90098 7.34313 6.10601C7.1381 6.31104 7.1381 6.64347 7.34313 6.8485C7.54817 7.05354 7.88059 7.05354 8.08563 6.8485C8.29066 6.64347 8.29066 6.31104 8.08563 6.10601Z" fill="#0D121C"/>
<path d="M10.5606 8.58099C10.7656 8.78602 10.7656 9.11845 10.5606 9.32348C10.3556 9.52851 10.0231 9.52851 9.81811 9.32348C9.61308 9.11845 9.61308 8.78602 9.81811 8.58099C10.0231 8.37595 10.3556 8.37595 10.5606 8.58099Z" fill="#0D121C"/>
<path d="M11.1793 11.1797C11.3844 10.9747 11.3844 10.6423 11.1793 10.4372C10.9743 10.2322 10.6419 10.2322 10.4369 10.4372C10.2318 10.6423 10.2318 10.9747 10.4369 11.1797C10.6419 11.3847 10.9743 11.3847 11.1793 11.1797Z" fill="#0D121C"/>
<path d="M8.70437 8.70474C8.9094 8.4997 8.9094 8.16728 8.70437 7.96224C8.49934 7.75721 8.16691 7.75721 7.96188 7.96224C7.75684 8.16728 7.75684 8.4997 7.96188 8.70474C8.16691 8.90977 8.49934 8.90977 8.70437 8.70474Z" fill="#0D121C"/>
<path d="M9.32312 9.81848C9.52815 10.0235 9.52815 10.3559 9.32312 10.561C9.11808 10.766 8.78566 10.766 8.58062 10.561C8.37559 10.3559 8.37559 10.0235 8.58062 9.81848C8.78566 9.61344 9.11808 9.61344 9.32312 9.81848Z" fill="#0D121C"/>
<path d="M6.10564 7.3435C6.31068 7.13846 6.6431 7.13846 6.84814 7.3435C7.05317 7.54853 7.05317 7.88096 6.84814 8.08599C6.6431 8.29103 6.31068 8.29103 6.10564 8.08599C5.90061 7.88096 5.90061 7.54853 6.10564 7.3435Z" fill="#0D121C"/>
<path fill-rule="evenodd" clip-rule="evenodd" d="M9.59874 1.78862C10.8724 0.514958 12.9374 0.514958 14.2111 1.78862C15.4848 3.06229 15.4848 5.12731 14.2111 6.40097L12.612 8.00004L14.2111 9.59911C15.4848 10.8728 15.4848 12.9378 14.2111 14.2115C12.9374 15.4851 10.8724 15.4851 9.59874 14.2115L7.99968 12.6124L6.40061 14.2115C5.12694 15.4851 3.06192 15.4851 1.78826 14.2115C0.514592 12.9378 0.514592 10.8728 1.78826 9.59911L3.38732 8.00004L1.78826 6.40097C0.514592 5.12731 0.514591 3.06229 1.78826 1.78862C3.06192 0.514958 5.12694 0.514958 6.40061 1.78862L7.99968 3.38769L9.59874 1.78862ZM13.504 10.3062C14.3871 11.1894 14.3871 12.6212 13.504 13.5044C12.6208 14.3875 11.189 14.3875 10.3059 13.5044L2.49536 5.69387C1.61222 4.81073 1.61222 3.37887 2.49536 2.49573C3.3785 1.61259 4.81036 1.61259 5.6935 2.49573L13.504 10.3062ZM13.504 5.69387L11.9049 7.29293L8.70678 4.0948L10.3059 2.49573C11.189 1.61259 12.6208 1.61259 13.504 2.49573C14.3871 3.37887 14.3871 4.81073 13.504 5.69387ZM2.49536 10.3062L4.09443 8.70715L7.29257 11.9053L5.6935 13.5044C4.81036 14.3875 3.3785 14.3875 2.49536 13.5044C1.61222 12.6212 1.61222 11.1894 2.49536 10.3062Z" fill="#0D121C"/>
</g>
<defs>
<clipPath id="clip0_251_360">
<rect width="16" height="16" fill="white"/>
</clipPath>
</defs>
</svg>
