<svg width="16" height="16" viewBox="0 0 16 16" fill="none" xmlns="http://www.w3.org/2000/svg">
<g clip-path="url(#clip0_251_372)">
<path d="M10.6669 6.99989C10.6669 7.55218 10.3684 7.99989 10.0002 7.99989C9.63201 7.99989 9.33354 7.55218 9.33354 6.99989C9.33354 6.44761 9.63201 5.99989 10.0002 5.99989C10.3684 5.99989 10.6669 6.44761 10.6669 6.99989Z" fill="#0D121C"/>
<path d="M6.66687 6.99989C6.66687 7.55218 6.36839 7.99989 6.0002 7.99989C5.63201 7.99989 5.33354 7.55218 5.33354 6.99989C5.33354 6.44761 5.63201 5.99989 6.0002 5.99989C6.36839 5.99989 6.66687 6.44761 6.66687 6.99989Z" fill="#0D121C"/>
<path fill-rule="evenodd" clip-rule="evenodd" d="M8.84353 1.36707C8.89846 1.09645 9.16237 0.921591 9.433 0.97652C12.242 1.54667 14.4534 3.75806 15.0236 6.56706C15.0786 6.83768 14.9037 7.1016 14.6331 7.15653C14.3625 7.21147 14.0985 7.03661 14.0436 6.76599C13.5533 4.35058 11.6495 2.4468 9.23408 1.95654C8.96346 1.90161 8.7886 1.63769 8.84353 1.36707ZM7.15699 1.36711C7.21191 1.63773 7.03706 1.90164 6.76644 1.95657C4.35101 2.44684 2.4472 4.35061 1.9569 6.76603C1.90197 7.03665 1.63805 7.2115 1.36743 7.15657C1.09681 7.10163 0.921955 6.83772 0.976888 6.5671C1.54709 3.75809 3.7585 1.54671 6.56752 0.976556C6.83814 0.921626 7.10206 1.09648 7.15699 1.36711ZM1.36753 8.84322C1.63816 8.78829 1.90207 8.96314 1.95701 9.23376C2.44731 11.6492 4.35111 13.553 6.76654 14.0432C7.03717 14.0981 7.21202 14.3621 7.15709 14.6327C7.10216 14.9033 6.83825 15.0782 6.56763 15.0232C3.7586 14.4531 1.54719 12.2417 0.976994 9.43269C0.922061 9.16207 1.09691 8.89815 1.36753 8.84322ZM14.6331 8.84322C14.9037 8.89815 15.0786 9.16207 15.0236 9.43269C14.4534 12.2417 12.242 14.4531 9.433 15.0232C9.16237 15.0782 8.89846 14.9033 8.84353 14.6327C8.7886 14.3621 8.96346 14.0981 9.23408 14.0432C11.6495 13.5529 13.5533 11.6492 14.0436 9.23376C14.0985 8.96314 14.3625 8.78829 14.6331 8.84322ZM5.59852 10.3688C5.76296 10.147 6.0761 10.1004 6.29795 10.2649C6.78351 10.6248 7.3696 10.8332 8.0002 10.8332C8.6308 10.8332 9.2169 10.6248 9.70246 10.2649C9.92431 10.1004 10.2374 10.147 10.4019 10.3688C10.5663 10.5907 10.5198 10.9038 10.2979 11.0682C9.64967 11.5488 8.85685 11.8332 8.0002 11.8332C7.14356 11.8332 6.35074 11.5488 5.70246 11.0682C5.48062 10.9038 5.43408 10.5907 5.59852 10.3688Z" fill="#0D121C"/>
</g>
<defs>
<clipPath id="clip0_251_372">
<rect width="16" height="16" fill="white"/>
</clipPath>
</defs>
</svg>
