<svg width="16" height="16" viewBox="0 0 16 16" fill="none" xmlns="http://www.w3.org/2000/svg">
<g clip-path="url(#clip0_251_316)">
<path d="M0.0358947 3.31407C0.138451 3.05768 0.429437 2.93297 0.685828 3.03553L2.44305 3.73842C2.80066 3.88146 3.1996 3.88146 3.55722 3.73842L4.57166 3.33264C5.16768 3.09423 5.83258 3.09423 6.42861 3.33264L7.44305 3.73842C7.80066 3.88146 8.1996 3.88146 8.55722 3.73842L9.57166 3.33264C10.1677 3.09423 10.8326 3.09423 11.4286 3.33264L12.443 3.73842C12.8007 3.88146 13.1996 3.88146 13.5572 3.73842L15.3144 3.03553C15.5708 2.93297 15.8618 3.05768 15.9644 3.31407C16.0669 3.57046 15.9422 3.86145 15.6858 3.96401L13.9286 4.66689C13.3326 4.9053 12.6677 4.9053 12.0717 4.66689L11.0572 4.26112C10.6996 4.11807 10.3007 4.11807 9.94305 4.26112L8.92861 4.66689C8.33258 4.9053 7.66768 4.9053 7.07166 4.66689L6.05722 4.26112C5.6996 4.11807 5.30066 4.11807 4.94305 4.26112L3.92861 4.66689C3.33258 4.9053 2.66768 4.9053 2.07166 4.66689L0.314438 3.96401C0.0580459 3.86145 -0.066662 3.57046 0.0358947 3.31407ZM0.0358947 6.31407C0.138451 6.05768 0.429437 5.93297 0.685828 6.03553L2.44305 6.73842C2.80066 6.88146 3.1996 6.88146 3.55722 6.73842L4.57166 6.33264C5.16768 6.09423 5.83258 6.09423 6.42861 6.33264L7.44305 6.73842C7.80066 6.88146 8.1996 6.88146 8.55722 6.73842L9.57166 6.33264C10.1677 6.09423 10.8326 6.09423 11.4286 6.33264L12.443 6.73842C12.8007 6.88146 13.1996 6.88146 13.5572 6.73842L15.3144 6.03553C15.5708 5.93297 15.8618 6.05768 15.9644 6.31407C16.0669 6.57046 15.9422 6.86145 15.6858 6.96401L13.9286 7.66689C13.3326 7.9053 12.6677 7.9053 12.0717 7.66689L11.0572 7.26112C10.6996 7.11807 10.3007 7.11807 9.94305 7.26112L8.92861 7.66689C8.33258 7.9053 7.66768 7.9053 7.07166 7.66689L6.05722 7.26112C5.6996 7.11807 5.30066 7.11807 4.94305 7.26112L3.92861 7.66689C3.33258 7.9053 2.66768 7.9053 2.07166 7.66689L0.314438 6.96401C0.0580459 6.86145 -0.066662 6.57046 0.0358947 6.31407ZM0.0358947 9.31407C0.138451 9.05768 0.429437 8.93297 0.685828 9.03553L2.44305 9.73842C2.80066 9.88146 3.1996 9.88146 3.55722 9.73842L4.57166 9.33264C5.16768 9.09423 5.83258 9.09423 6.42861 9.33264L7.44305 9.73842C7.80066 9.88146 8.1996 9.88146 8.55722 9.73842L9.57166 9.33264C10.1677 9.09423 10.8326 9.09423 11.4286 9.33264L12.443 9.73842C12.8007 9.88146 13.1996 9.88146 13.5572 9.73842L15.3144 9.03553C15.5708 8.93297 15.8618 9.05768 15.9644 9.31407C16.0669 9.57046 15.9422 9.86145 15.6858 9.964L13.9286 10.6669C13.3326 10.9053 12.6677 10.9053 12.0717 10.6669L11.0572 10.2611C10.6996 10.1181 10.3007 10.1181 9.94305 10.2611L8.92861 10.6669C8.33258 10.9053 7.66768 10.9053 7.07166 10.6669L6.05722 10.2611C5.6996 10.1181 5.30066 10.1181 4.94305 10.2611L3.92861 10.6669C3.33258 10.9053 2.66768 10.9053 2.07166 10.6669L0.314438 9.964C0.0580459 9.86145 -0.066662 9.57046 0.0358947 9.31407ZM0.0358947 12.3141C0.138451 12.0577 0.429437 11.933 0.685828 12.0355L2.44305 12.7384C2.80066 12.8815 3.1996 12.8815 3.55722 12.7384L4.57166 12.3326C5.16768 12.0942 5.83258 12.0942 6.42861 12.3326L7.44305 12.7384C7.80066 12.8815 8.1996 12.8815 8.55722 12.7384L9.57166 12.3326C10.1677 12.0942 10.8326 12.0942 11.4286 12.3326L12.443 12.7384C12.8007 12.8815 13.1996 12.8815 13.5572 12.7384L15.3144 12.0355C15.5708 11.933 15.8618 12.0577 15.9644 12.3141C16.0669 12.5705 15.9422 12.8614 15.6858 12.964L13.9286 13.6669C13.3326 13.9053 12.6677 13.9053 12.0717 13.6669L11.0572 13.2611C10.6996 13.1181 10.3007 13.1181 9.94305 13.2611L8.92861 13.6669C8.33258 13.9053 7.66768 13.9053 7.07166 13.6669L6.05722 13.2611C5.6996 13.1181 5.30066 13.1181 4.94305 13.2611L3.92861 13.6669C3.33258 13.9053 2.66768 13.9053 2.07166 13.6669L0.314438 12.964C0.0580459 12.8614 -0.066662 12.5705 0.0358947 12.3141Z" fill="#0D121C"/>
</g>
<defs>
<clipPath id="clip0_251_316">
<rect width="16" height="16" fill="white"/>
</clipPath>
</defs>
</svg>
