<svg width="16" height="16" viewBox="0 0 16 16" fill="none" xmlns="http://www.w3.org/2000/svg">
<g clip-path="url(#clip0_251_334)">
<path d="M13.1223 0.0499374C13.3674 0.15144 13.5272 0.390561 13.5272 0.655799V4.36545C13.5272 4.72763 13.2336 5.02123 12.8714 5.02123H9.16172C8.89649 5.02123 8.65736 4.86145 8.55586 4.61641C8.45436 4.37136 8.51047 4.08929 8.69802 3.90174L10.0996 2.50012C7.79715 1.5371 5.04168 1.99333 3.16827 3.86674C0.692656 6.34236 0.692656 10.3561 3.16827 12.8317C5.64388 15.3073 9.65764 15.3073 12.1333 12.8317C13.5727 11.3923 14.1756 9.43356 13.9406 7.55679C13.8956 7.19742 14.1504 6.86961 14.5098 6.82462C14.8692 6.77962 15.197 7.03447 15.242 7.39385C15.5251 9.65501 14.7984 12.0214 13.0607 13.7591C10.0729 16.747 5.22867 16.747 2.24086 13.7591C-0.746952 10.7713 -0.746952 5.92714 2.24086 2.93933C4.63522 0.54497 8.22041 0.0699745 11.0879 1.51189L12.4077 0.192093C12.5952 0.0045409 12.8773 -0.0515648 13.1223 0.0499374Z" fill="#0D121C"/>
</g>
<defs>
<clipPath id="clip0_251_334">
<rect width="16" height="16" fill="white"/>
</clipPath>
</defs>
</svg>
