<svg width="16" height="16" viewBox="0 0 16 16" fill="none" xmlns="http://www.w3.org/2000/svg">
<g clip-path="url(#clip0_251_324)">
<path d="M16 8C16 12.4183 12.4183 16 8 16C3.58172 16 0 12.4183 0 8C0 3.58172 3.58172 0 8 0C12.4183 0 16 3.58172 16 8ZM8 15C7.72386 15 7.5 14.7761 7.5 14.5C7.5 14.2239 7.72386 14 8 14H11.5C11.5318 14 11.563 14.003 11.5932 14.0087C12.0678 13.7242 12.506 13.3851 12.899 13H8C7.72386 13 7.5 12.7761 7.5 12.5C7.5 12.2239 7.72386 12 8 12H13.7453C13.9653 11.6846 14.1599 11.3503 14.3264 11H8C7.72386 11 7.5 10.7761 7.5 10.5C7.5 10.2239 7.72386 10 8 10H14.7101C14.8066 9.67588 14.8802 9.34193 14.9291 9H8C7.72386 9 7.5 8.77614 7.5 8.5C7.5 8.22386 7.72386 8 8 8H15C15 7.66048 14.9758 7.3266 14.9291 7H8C7.72386 7 7.5 6.77614 7.5 6.5C7.5 6.22386 7.72386 6 8 6H14.7101C14.6074 5.65475 14.4787 5.32067 14.3264 5H8C7.72386 5 7.5 4.77614 7.5 4.5C7.5 4.22386 7.72386 4 8 4H13.7453C13.4946 3.64059 13.2111 3.3058 12.899 3H8C7.72386 3 7.5 2.77614 7.5 2.5C7.5 2.22386 7.72386 2 8 2H11.6076C10.554 1.36518 9.31967 1 8 1C4.13401 1 1 4.13401 1 8C1 11.866 4.13401 15 8 15Z" fill="#0D121C"/>
</g>
<defs>
<clipPath id="clip0_251_324">
<rect width="16" height="16" fill="white"/>
</clipPath>
</defs>
</svg>
