<svg width="16" height="16" viewBox="0 0 16 16" fill="none" xmlns="http://www.w3.org/2000/svg">
<path fill-rule="evenodd" clip-rule="evenodd" d="M8.00038 0C8.30863 0 8.55852 0.249888 8.55852 0.55814V2.18742L9.83827 0.907661C10.0562 0.689694 10.4096 0.689694 10.6276 0.907661C10.8456 1.12563 10.8456 1.47902 10.6276 1.69699L8.55852 3.76607V7.03328L11.3879 5.39972L12.1453 2.5733C12.225 2.27556 12.5311 2.09886 12.8288 2.17864C13.1266 2.25842 13.3033 2.56447 13.2235 2.86222L12.7551 4.6104L14.1661 3.79576C14.433 3.64163 14.7744 3.7331 14.9285 4.00005C15.0826 4.267 14.9912 4.60836 14.7242 4.76248L13.3132 5.57712L15.0614 6.04554C15.3591 6.12533 15.5358 6.43137 15.4561 6.72912C15.3763 7.02687 15.0702 7.20357 14.7725 7.12379L11.9461 6.36645L9.11666 8.00001L11.9462 9.63365L14.7726 8.87631C15.0704 8.79653 15.3764 8.97323 15.4562 9.27098C15.536 9.56873 15.3593 9.87477 15.0615 9.95456L13.3134 10.423L14.7244 11.2376C14.9913 11.3917 15.0828 11.7331 14.9287 12.0001C14.7745 12.267 14.4332 12.3585 14.1662 12.2043L12.7552 11.3897L13.2237 13.1379C13.3034 13.4356 13.1267 13.7417 12.829 13.8215C12.5312 13.9012 12.2252 13.7245 12.1454 13.4268L11.3881 10.6004L8.55852 8.96673V12.2339L10.6276 14.303C10.8456 14.521 10.8456 14.8744 10.6276 15.0923C10.4096 15.3103 10.0562 15.3103 9.83827 15.0923L8.55852 13.8126V15.4419C8.55852 15.7501 8.30863 16 8.00038 16C7.69213 16 7.44224 15.7501 7.44224 15.4419V13.8126L6.16248 15.0923C5.94452 15.3103 5.59112 15.3103 5.37316 15.0923C5.15519 14.8744 5.15519 14.521 5.37316 14.303L7.44224 12.2339V8.96673L4.61269 10.6004L3.85535 13.4268C3.77557 13.7245 3.46952 13.9012 3.17177 13.8215C2.87402 13.7417 2.69732 13.4356 2.77711 13.1379L3.24553 11.3897L1.83453 12.2043C1.56758 12.3585 1.22623 12.267 1.0721 12.0001C0.917975 11.7331 1.00944 11.3917 1.27639 11.2376L2.68739 10.423L0.939212 9.95456C0.641463 9.87477 0.464766 9.56873 0.544547 9.27098C0.624329 8.97323 0.930377 8.79653 1.22813 8.87631L4.05455 9.63365L6.8841 8.00001L4.05469 6.36645L1.22827 7.12379C0.930523 7.20357 0.624475 7.02687 0.544693 6.72912C0.464912 6.43137 0.641609 6.12533 0.939358 6.04554L2.68754 5.57712L1.27654 4.76248C1.00959 4.60836 0.918121 4.267 1.07225 4.00005C1.22637 3.7331 1.56773 3.64163 1.83468 3.79576L3.24567 4.6104L2.77725 2.86222C2.69747 2.56447 2.87417 2.25842 3.17192 2.17864C3.46966 2.09886 3.77571 2.27556 3.85549 2.5733L4.61283 5.39972L7.44224 7.03328V3.76607L5.37316 1.69699C5.15519 1.47902 5.15519 1.12563 5.37316 0.907661C5.59112 0.689694 5.94452 0.689694 6.16248 0.907661L7.44224 2.18742V0.55814C7.44224 0.249888 7.69213 0 8.00038 0Z" fill="#0D121C"/>
</svg>
