<svg width="16" height="16" viewBox="0 0 16 16" fill="none" xmlns="http://www.w3.org/2000/svg">
<g clip-path="url(#clip0_251_332)">
<path fill-rule="evenodd" clip-rule="evenodd" d="M4.50055 0C4.2244 0 4.00055 0.223858 4.00055 0.5C4.00055 0.776142 4.2244 1 4.50055 1H5.00055V6.35932L0.503681 13.7178C-0.107143 14.7174 0.612209 16 1.7836 16H14.2175C15.3889 16 16.1082 14.7174 15.4974 13.7178L11.0005 6.35932V1H11.5005C11.7767 1 12.0005 0.776142 12.0005 0.5C12.0005 0.223858 11.7767 0 11.5005 0H4.50055ZM10.0005 2H9.00055C8.72441 2 8.50055 2.22386 8.50055 2.5C8.50055 2.77614 8.72441 3 9.00055 3H10.0005V4H9.00055C8.72441 4 8.50055 4.22386 8.50055 4.5C8.50055 4.77614 8.72441 5 9.00055 5H10.0005V6H9.00055C8.72441 6 8.50055 6.22386 8.50055 6.5C8.50055 6.77614 8.72441 7 9.00055 7H10.2201L10.8312 8H10.0005C9.72441 8 9.50055 8.22386 9.50055 8.5C9.50055 8.77614 9.72441 9 10.0005 9H11.4424L12.0535 10H11.0005C10.7244 10 10.5005 10.2239 10.5005 10.5C10.5005 10.7761 10.7244 11 11.0005 11H12.6646L13.2757 12H12.0005C11.7244 12 11.5005 12.2239 11.5005 12.5C11.5005 12.7761 11.7244 13 12.0005 13H13.8868L14.6441 14.2393C14.8477 14.5725 14.608 15 14.2175 15H1.7836C1.39314 15 1.15335 14.5725 1.35696 14.2393L5.92719 6.76073C5.97516 6.68222 6.00055 6.592 6.00055 6.5V1H10.0005V2Z" fill="#0D121C"/>
</g>
<defs>
<clipPath id="clip0_251_332">
<rect width="16" height="16" fill="white"/>
</clipPath>
</defs>
</svg>
