<svg width="16" height="16" viewBox="0 0 16 16" fill="none" xmlns="http://www.w3.org/2000/svg">
<g clip-path="url(#clip0_251_889)">
<path fill-rule="evenodd" clip-rule="evenodd" d="M7.66634 1.83337C4.44468 1.83337 1.83301 4.44505 1.83301 7.66671C1.83301 10.8884 4.44468 13.5 7.66634 13.5C10.888 13.5 13.4997 10.8884 13.4997 7.66671C13.4997 4.44505 10.888 1.83337 7.66634 1.83337ZM0.833008 7.66671C0.833008 3.89276 3.8924 0.833374 7.66634 0.833374C11.4403 0.833374 14.4997 3.89276 14.4997 7.66671C14.4997 9.37372 13.8738 10.9345 12.8389 12.1322L15.0199 14.3132C15.2152 14.5084 15.2152 14.825 15.0199 15.0203C14.8246 15.2155 14.508 15.2155 14.3128 15.0203L12.1318 12.8393C10.9342 13.8741 9.37335 14.5 7.66634 14.5C3.8924 14.5 0.833008 11.4407 0.833008 7.66671Z" fill="#0D121C"/>
</g>
<defs>
<clipPath id="clip0_251_889">
<rect width="16" height="16" fill="white"/>
</clipPath>
</defs>
</svg>
