<svg width="16" height="16" viewBox="0 0 16 16" fill="none" xmlns="http://www.w3.org/2000/svg">
<path d="M0.539098 3.87024L0.499542 3C0.499542 1.89543 1.39497 1 2.49954 1H6.17111C6.70155 1 7.21026 1.21071 7.58533 1.58579L8.41376 2.41421C8.78883 2.78929 9.29754 3 9.82797 3H13.8095C14.9855 3 15.9077 4.00984 15.8013 5.18107L15.1649 12.1811C15.0713 13.2112 14.2075 14 13.1731 14H2.82598C1.79157 14 0.927844 13.2112 0.834193 12.1811L0.19783 5.18107C0.153774 4.69647 0.285825 4.23949 0.539098 3.87024ZM2.18962 4C1.60159 4 1.14048 4.50492 1.19372 5.09054L1.83009 12.0905C1.87691 12.6056 2.30878 13 2.82598 13H13.1731C13.6903 13 14.1222 12.6056 14.169 12.0905L14.8054 5.09054C14.8586 4.50492 14.3975 4 13.8095 4H2.18962ZM6.87822 2.29289C6.69069 2.10536 6.43633 2 6.17111 2H2.49954C1.95356 2 1.50978 2.43755 1.49972 2.98112L1.50601 3.11964C1.71882 3.04231 1.9489 3 2.18962 3H7.58533L6.87822 2.29289Z" fill="#0D121C"/>
</svg>
