<svg width="16" height="16" viewBox="0 0 16 16" fill="none" xmlns="http://www.w3.org/2000/svg">
<path d="M10.4997 8.00004C10.4997 8.46028 10.8728 8.83337 11.333 8.83337C11.7932 8.83337 12.1663 8.46028 12.1663 8.00004C12.1663 7.5398 11.7932 7.16671 11.333 7.16671C10.8728 7.16671 10.4997 7.5398 10.4997 8.00004Z" fill="#0D121C"/>
<path d="M7.99967 8.83337C7.53944 8.83337 7.16634 8.46028 7.16634 8.00004C7.16634 7.5398 7.53944 7.16671 7.99967 7.16671C8.45991 7.16671 8.83301 7.5398 8.83301 8.00004C8.83301 8.46028 8.45991 8.83337 7.99967 8.83337Z" fill="#0D121C"/>
<path d="M3.83301 8.00004C3.83301 8.46028 4.2061 8.83337 4.66634 8.83337C5.12658 8.83337 5.49967 8.46028 5.49967 8.00004C5.49967 7.5398 5.12658 7.16671 4.66634 7.16671C4.2061 7.16671 3.83301 7.5398 3.83301 8.00004Z" fill="#0D121C"/>
<path fill-rule="evenodd" clip-rule="evenodd" d="M7.99967 1.33337C4.31778 1.33337 1.33301 4.31814 1.33301 8.00004C1.33301 8.55492 1.40094 9.09485 1.52926 9.61158L1.6996 10.9742C1.70059 10.9822 1.70043 10.9903 1.69911 10.9983L1.47051 12.3698C1.33816 13.1639 1.89334 13.9086 2.69219 14.0085L6.38813 14.4705C6.90486 14.5988 7.44479 14.6667 7.99967 14.6667C11.6816 14.6667 14.6663 11.6819 14.6663 8.00004C14.6663 4.31814 11.6816 1.33337 7.99967 1.33337ZM2.66634 8.00004C2.66634 5.05452 5.05416 2.66671 7.99967 2.66671C10.9452 2.66671 13.333 5.05452 13.333 8.00004C13.333 10.9456 10.9452 13.3334 7.99967 13.3334C7.54198 13.3334 7.09867 13.2759 6.67617 13.168L6.63557 13.1577L2.85757 12.6854C2.81058 12.6795 2.77792 12.6357 2.7857 12.589L3.0143 11.2175C3.03681 11.0824 3.03962 10.9448 3.02263 10.8089L2.84204 9.36415L2.83168 9.32355C2.72384 8.90105 2.66634 8.45774 2.66634 8.00004Z" fill="#0D121C"/>
</svg>
