<svg width="16" height="16" viewBox="0 0 16 16" fill="none" xmlns="http://www.w3.org/2000/svg">
<g clip-path="url(#clip0_251_370)">
<path d="M6.66647 2.83337H7.9998C8.27595 2.83337 8.4998 3.05723 8.4998 3.33337C8.4998 3.60952 8.27595 3.83337 7.9998 3.83337H6.66647C6.39033 3.83337 6.16647 3.60952 6.16647 3.33337C6.16647 3.05723 6.39033 2.83337 6.66647 2.83337Z" fill="#0D121C"/>
<path d="M6.49521 6.12698C6.53293 6.40053 6.34175 6.65287 6.0682 6.6906L6.06739 6.69071L6.06651 6.69083L6.0645 6.69109L6.05955 6.69173L6.04595 6.69333C6.03528 6.69453 6.02141 6.69593 6.00461 6.69733C5.97106 6.70012 5.92553 6.70291 5.87027 6.70391C5.76034 6.70588 5.60849 6.7008 5.43378 6.67298C5.08713 6.61778 4.62268 6.46799 4.23213 6.07743C3.84157 5.68688 3.69178 5.22242 3.63658 4.87578C3.60875 4.70107 3.60368 4.54922 3.60565 4.43929C3.60665 4.38403 3.60944 4.3385 3.61223 4.30495C3.61363 4.28815 3.61503 4.27428 3.61623 4.26361L3.61783 4.25001L3.61847 4.24505C3.65619 3.9715 3.90902 3.77663 4.18258 3.81435C4.4549 3.85191 4.64559 4.10215 4.61008 4.37428C4.58586 4.81601 4.81699 5.69948 5.93528 5.69948C6.20741 5.66397 6.45765 5.85466 6.49521 6.12698Z" fill="#0D121C"/>
<path d="M7.31292 5.31315C7.50818 5.11789 7.82476 5.11789 8.02002 5.31315L8.68669 5.97982C8.88195 6.17508 8.88195 6.49166 8.68669 6.68693C8.49143 6.88219 8.17485 6.88219 7.97959 6.68693L7.31292 6.02026C7.11766 5.825 7.11766 5.50842 7.31292 5.31315Z" fill="#0D121C"/>
<path d="M10.1665 8.00004C10.1665 7.7239 9.94261 7.50004 9.66647 7.50004C9.39033 7.50004 9.16647 7.7239 9.16647 8.00004V9.33337C9.16647 9.60952 9.39033 9.83337 9.66647 9.83337C9.94261 9.83337 10.1665 9.60952 10.1665 9.33337V8.00004Z" fill="#0D121C"/>
<path d="M11.6481 11.7105L11.6472 11.7097L11.6462 11.7088L11.6441 11.7069L11.6393 11.7026L11.6272 11.6914C11.6181 11.6828 11.607 11.672 11.5943 11.659C11.569 11.6329 11.537 11.5977 11.5016 11.5531C11.4309 11.4643 11.3452 11.3366 11.2716 11.1698C11.1211 10.8284 11.0329 10.3467 11.1945 9.74342C11.3561 9.14017 11.6734 8.76704 11.9745 8.54664C12.1216 8.43893 12.2597 8.37129 12.3654 8.32965C12.4183 8.30879 12.4636 8.29425 12.4986 8.28436C12.5161 8.2794 12.5311 8.27559 12.5432 8.27272L12.5593 8.26908L12.5657 8.26773L12.5684 8.26717L12.5697 8.26692C12.5697 8.26692 12.5709 8.26668 12.6665 8.75746L12.5709 8.26668C12.842 8.21388 13.1045 8.39081 13.1573 8.66185C13.2094 8.92938 13.0377 9.18861 12.7727 9.24607L12.7709 9.24655C12.765 9.24822 12.7514 9.25237 12.732 9.26002C12.6929 9.2754 12.6327 9.30407 12.5652 9.35351C12.4369 9.44741 12.2597 9.63196 12.1605 10.0022C12.0613 10.3725 12.1225 10.6209 12.1866 10.7664C12.2204 10.843 12.2582 10.8979 12.2843 10.9308C12.2973 10.9471 12.307 10.9575 12.3113 10.9619L12.3126 10.9632C12.5134 11.1455 12.5325 11.4558 12.3536 11.6615C12.1723 11.8698 11.8565 11.8917 11.6481 11.7105Z" fill="#0D121C"/>
<path d="M3.73781 7.19132C3.84345 6.93619 3.72227 6.64372 3.46713 6.53808C3.21199 6.43243 2.91952 6.55362 2.81388 6.80876L2.53784 7.47542C2.4322 7.73056 2.55339 8.02303 2.80852 8.12867C3.06366 8.23431 3.35613 8.11312 3.46177 7.85799L3.73781 7.19132Z" fill="#0D121C"/>
<path d="M9.70764 5.27682C9.43551 5.31233 9.18526 5.12164 9.14771 4.84932C9.10998 4.57576 9.30486 4.32293 9.57841 4.2852C9.57841 4.2852 9.6215 4.28037 9.6383 4.27897C9.67185 4.27618 9.71738 4.27339 9.77265 4.27239C9.88257 4.27042 10.0344 4.27549 10.2091 4.30331C10.5558 4.35852 11.0202 4.50831 11.4108 4.89887C11.8013 5.28942 11.9511 5.75387 12.0063 6.10052C12.0342 6.27523 12.0392 6.42708 12.0373 6.53701C12.0363 6.59227 12.0335 6.6378 12.0307 6.67135C12.0293 6.68815 12.0279 6.70202 12.0267 6.71269C11.989 6.98625 11.7339 7.19967 11.4603 7.16194C11.188 7.12439 10.9973 6.87415 11.0328 6.60202C11.0328 5.48361 10.1494 5.25255 9.70764 5.27682Z" fill="#0D121C"/>
<path d="M9.25407 11.4534C9.03611 11.2838 8.72196 11.3231 8.55241 11.541C8.38287 11.759 8.42211 12.0731 8.64007 12.2427L9.69249 13.0613C9.91045 13.2309 10.2246 13.1916 10.3941 12.9737C10.5637 12.7557 10.5244 12.4416 10.3065 12.272L9.25407 11.4534Z" fill="#0D121C"/>
<path fill-rule="evenodd" clip-rule="evenodd" d="M5.99967 7.50004C4.61896 7.50004 3.49967 8.61933 3.49967 10C3.49967 11.3808 4.61896 12.5 5.99967 12.5C7.38039 12.5 8.49967 11.3808 8.49967 10C8.49967 8.61933 7.38039 7.50004 5.99967 7.50004ZM4.49967 10C4.49967 9.17161 5.17125 8.50004 5.99967 8.50004C6.8281 8.50004 7.49967 9.17161 7.49967 10C7.49967 10.8285 6.8281 11.5 5.99967 11.5C5.17125 11.5 4.49967 10.8285 4.49967 10Z" fill="#0D121C"/>
<path fill-rule="evenodd" clip-rule="evenodd" d="M0.833008 8.00004C0.833008 4.042 4.04163 0.833374 7.99967 0.833374C11.9577 0.833374 15.1663 4.042 15.1663 8.00004C15.1663 11.9581 11.9577 15.1667 7.99967 15.1667C4.04163 15.1667 0.833008 11.9581 0.833008 8.00004ZM7.99967 1.83337C4.59392 1.83337 1.83301 4.59428 1.83301 8.00004C1.83301 11.4058 4.59392 14.1667 7.99967 14.1667C11.4054 14.1667 14.1663 11.4058 14.1663 8.00004C14.1663 4.59428 11.4054 1.83337 7.99967 1.83337Z" fill="#0D121C"/>
</g>
<defs>
<clipPath id="clip0_251_370">
<rect width="16" height="16" fill="white"/>
</clipPath>
</defs>
</svg>
