<svg width="16" height="16" viewBox="0 0 16 16" fill="none" xmlns="http://www.w3.org/2000/svg">
<path fill-rule="evenodd" clip-rule="evenodd" d="M1.66667 0.666626C1.29848 0.666626 1 0.965103 1 1.33329C1 1.70148 1.29848 1.99996 1.66667 1.99996C2.15228 1.99996 2.57653 2.35282 2.66387 2.8493L3.12113 5.44842L3.12153 5.45072L3.4145 7.08801C3.59773 8.11205 3.74405 8.92981 3.92904 9.57942C4.11982 10.2493 4.36707 10.8005 4.78701 11.2664C5.07544 11.5863 5.41291 11.8602 5.78691 12.0788C6.32871 12.3954 6.92597 12.5349 7.63609 12.6016C8.32789 12.6666 9.18536 12.6666 10.2655 12.6666H10.5939C11.0743 12.6666 11.4704 12.6666 11.7967 12.6429C12.1366 12.6182 12.446 12.5654 12.7462 12.4375C13.1839 12.2509 13.5673 11.9575 13.8576 11.5832C14.0582 11.3247 14.1833 11.0398 14.2859 10.7214C14.3839 10.4177 14.4732 10.0433 14.5805 9.59343L14.594 9.53668C14.7572 8.85295 14.8905 8.2943 14.955 7.83813C15.0214 7.36876 15.0287 6.92729 14.8775 6.50177C14.6651 5.90356 14.2469 5.39995 13.6997 5.07186C13.3142 4.84074 12.8784 4.75031 12.3948 4.70796C11.9226 4.66661 11.331 4.66662 10.601 4.66663H4.3374L3.97704 2.61828C3.7793 1.49425 2.80956 0.666626 1.66667 0.666626ZM10.5698 5.99996C11.3384 5.99996 11.8714 6.00056 12.2785 6.03621C12.6808 6.07144 12.8819 6.13618 13.0141 6.21539C13.3024 6.38828 13.5147 6.64857 13.6211 6.94803C13.6675 7.07858 13.6887 7.27067 13.6348 7.65136C13.5801 8.03813 13.4621 8.5357 13.2894 9.25939C13.1747 9.74015 13.097 10.0638 13.0169 10.3123C12.9397 10.5518 12.8737 10.6763 12.8042 10.7659C12.6554 10.9576 12.456 11.1117 12.2233 11.2109C12.1112 11.2587 11.964 11.2939 11.7 11.3131C11.4277 11.3329 11.0803 11.3333 10.5698 11.3333H10.2992C9.1779 11.3333 8.38302 11.3326 7.76087 11.2741C7.14985 11.2167 6.76783 11.1077 6.45968 10.9277C6.20289 10.7776 5.97284 10.5905 5.77734 10.3736C5.54522 10.1161 5.37217 9.77884 5.21139 9.21424C5.04693 8.63671 4.91165 7.88516 4.72074 6.81821L4.57432 5.99996H10.5698Z" fill="#0D121C"/>
<path d="M7 13.8333C7 14.2935 6.6269 14.6666 6.16667 14.6666C5.70643 14.6666 5.33333 14.2935 5.33333 13.8333C5.33333 13.3731 5.70643 13 6.16667 13C6.6269 13 7 13.3731 7 13.8333Z" fill="#0D121C"/>
<path d="M12.1667 14.6666C12.6269 14.6666 13 14.2935 13 13.8333C13 13.3731 12.6269 13 12.1667 13C11.7064 13 11.3333 13.3731 11.3333 13.8333C11.3333 14.2935 11.7064 14.6666 12.1667 14.6666Z" fill="#0D121C"/>
</svg>
