<svg width="16" height="16" viewBox="0 0 16 16" fill="none" xmlns="http://www.w3.org/2000/svg">
<path d="M11.2625 10.34C11.5273 10.1822 11.614 9.83959 11.4562 9.5748C11.2983 9.31002 10.9558 9.2233 10.691 9.38112L7.71425 11.1553C7.44946 11.3131 7.36275 11.6557 7.52056 11.9205C7.67838 12.1853 8.02097 12.272 8.28575 12.1142L11.2625 10.34Z" fill="#0D121C"/>
<path fill-rule="evenodd" clip-rule="evenodd" d="M7.13631 1.70442C7.41251 1.57561 7.68823 1.48853 8 1.48853C8.31177 1.48853 8.58749 1.57561 8.86369 1.70442C9.12305 1.82539 9.41867 2.00112 9.76621 2.20772L12.0132 3.54336C12.3609 3.75006 12.6565 3.92573 12.8877 4.09633C12.9996 4.17887 13.1035 4.26516 13.1978 4.36021L15.1322 3.07063C15.3887 2.89964 15.7352 2.96894 15.9062 3.22542C16.0772 3.4819 16.0079 3.82843 15.7514 3.99942L13.7064 5.36276C13.7208 5.44407 13.7316 5.52697 13.7397 5.61173C13.7674 5.90153 13.7674 6.25135 13.7674 6.66587V9.33434C13.7674 9.74886 13.7674 10.0987 13.7397 10.3885C13.7103 10.6958 13.6467 10.9786 13.4946 11.2498C13.342 11.5219 13.1342 11.722 12.8877 11.9039C12.6565 12.0745 12.361 12.2501 12.0132 12.4568L9.76622 13.7925C9.41873 13.9991 9.12302 14.1748 8.86369 14.2958C8.58749 14.4246 8.31177 14.5117 8 14.5117C7.68823 14.5117 7.41251 14.4246 7.13631 14.2958C6.87698 14.1748 6.58141 13.9991 6.23393 13.7926L3.98682 12.4569C3.63904 12.2501 3.34351 12.0745 3.11231 11.9039C3.00044 11.8213 2.89655 11.7351 2.80217 11.64L0.867793 12.9296C0.611313 13.1006 0.264784 13.0313 0.093798 12.7748C-0.0771882 12.5183 -0.00788233 12.1718 0.248597 12.0008L2.2936 10.6375C2.27915 10.5561 2.26844 10.4732 2.26033 10.3885C2.23258 10.0987 2.23259 9.74886 2.2326 9.33435V6.66586C2.23259 6.25135 2.23258 5.90152 2.26033 5.61173C2.26844 5.52697 2.27915 5.44407 2.2936 5.36276L0.248597 3.99942C-0.00788233 3.82843 -0.0771882 3.4819 0.093798 3.22542C0.264784 2.96894 0.611313 2.89964 0.867793 3.07063L2.80217 4.36021C2.89655 4.26516 3.00044 4.17887 3.11231 4.09633C3.34351 3.92572 3.63905 3.75006 3.98683 3.54335L6.23379 2.20772C6.58133 2.00112 6.87694 1.82539 7.13631 1.70442ZM7.60813 2.71608C7.40545 2.8106 7.15788 2.95701 6.7814 3.1808L4.57971 4.48952C4.20336 4.71323 3.95624 4.86087 3.7751 4.99453C3.60431 5.12056 3.52791 5.20919 3.47902 5.29638C3.42966 5.3844 3.39246 5.49934 3.37151 5.71812C3.34946 5.94846 3.34887 6.24459 3.34887 6.69138V9.30883C3.34887 9.75562 3.34946 10.0518 3.37151 10.2821C3.39246 10.5009 3.42966 10.6158 3.47902 10.7038C3.52791 10.791 3.60431 10.8797 3.7751 11.0057C3.95624 11.1393 4.20336 11.287 4.57971 11.5107L6.7814 12.8194C7.15788 13.0432 7.40545 13.1896 7.60813 13.2841C7.79961 13.3734 7.90884 13.3954 8 13.3954C8.09116 13.3954 8.20039 13.3734 8.39187 13.2841C8.59455 13.1896 8.84212 13.0432 9.2186 12.8194L11.4203 11.5107C11.7966 11.287 12.0438 11.1393 12.2249 11.0057C12.3957 10.8797 12.4721 10.791 12.521 10.7038C12.5703 10.6158 12.6075 10.5009 12.6285 10.2821C12.6505 10.0518 12.6511 9.75562 12.6511 9.30883V6.69138C12.6511 6.24459 12.6505 5.94846 12.6285 5.71812C12.6075 5.49934 12.5703 5.3844 12.521 5.29638C12.4721 5.20919 12.3957 5.12056 12.2249 4.99453C12.0438 4.86087 11.7966 4.71323 11.4203 4.48952L9.2186 3.1808C8.84212 2.95701 8.59455 2.8106 8.39187 2.71608C8.20039 2.62678 8.09116 2.6048 8 2.6048C7.90884 2.6048 7.79961 2.62678 7.60813 2.71608Z" fill="#0D121C"/>
</svg>
