<svg width="16" height="16" viewBox="0 0 16 16" fill="none" xmlns="http://www.w3.org/2000/svg">
<path fill-rule="evenodd" clip-rule="evenodd" d="M8 0C3.58172 0 0 3.58172 0 8C0 12.4183 3.58172 16 8 16C12.4183 16 16 12.4183 16 8C16 3.58172 12.4183 0 8 0ZM8.53415 8.4677V13.3333L6.576 13.3333V8.46775H4.93864V6.57156H6.57605V5.17314C6.57605 3.5503 7.56718 2.66667 9.01488 2.66667C9.70829 2.66667 10.3043 2.71828 10.478 2.7413V4.43723L9.47393 4.4377C8.68662 4.4377 8.53415 4.81186 8.53415 5.36084V6.5715H10.4119L10.1673 8.4677H8.53415Z" fill="#0D121C"/>
</svg>
