<svg width="16" height="16" viewBox="0 0 16 16" fill="none" xmlns="http://www.w3.org/2000/svg">
<path fill-rule="evenodd" clip-rule="evenodd" d="M0.978714 4.31381C1.17357 4.11814 1.49015 4.11748 1.68582 4.31233L4.29826 6.91385C4.64079 7.25494 4.86286 7.47459 5.0478 7.61516C5.22119 7.74695 5.30229 7.76169 5.356 7.76171C5.40972 7.76173 5.49082 7.74704 5.66431 7.61538C5.84935 7.47495 6.07159 7.25546 6.41436 6.91462L6.59719 6.73282C6.90975 6.42199 7.17916 6.15407 7.42383 5.96836C7.68611 5.76929 7.97755 5.61868 8.33635 5.61864C8.69515 5.6186 8.98662 5.76914 9.24895 5.96815C9.49367 6.1538 9.76315 6.42166 10.0758 6.73243L14.1663 10.7981V8.30274C14.1663 8.02659 14.3902 7.80274 14.6663 7.80274C14.9425 7.80274 15.1663 8.02659 15.1663 8.30274V12C15.1663 12.2761 14.9425 12.5 14.6663 12.5H10.9449C10.6688 12.5 10.4449 12.2761 10.4449 12C10.4449 11.7238 10.6688 11.5 10.9449 11.5H13.454L9.3941 7.46481C9.05155 7.12435 8.82947 6.90512 8.64456 6.76484C8.47121 6.63333 8.39016 6.61863 8.33647 6.61864C8.28278 6.61865 8.20173 6.63336 8.02841 6.76491C7.84353 6.90523 7.6215 7.12452 7.27903 7.46506L7.09618 7.64687C6.78334 7.95799 6.51371 8.22613 6.26884 8.41196C6.00636 8.61116 5.7147 8.76184 5.35564 8.76171C4.99658 8.76158 4.70502 8.61068 4.44269 8.4113C4.19795 8.22528 3.92851 7.95694 3.6159 7.64559C3.60817 7.6379 3.60042 7.63018 3.59264 7.62244L0.980196 5.02092C0.784525 4.82607 0.783862 4.50949 0.978714 4.31381Z" fill="#0D121C"/>
</svg>
