<svg width="16" height="16" viewBox="0 0 16 16" fill="none" xmlns="http://www.w3.org/2000/svg">
<g clip-path="url(#clip0_251_364)">
<path fill-rule="evenodd" clip-rule="evenodd" d="M8.97388 2.69788C9.77616 3.24617 10.5743 3.90629 11.3337 4.66571C12.0931 5.42515 12.7533 6.22329 13.3016 7.0256C13.7689 6.10731 14.0499 5.23777 14.1369 4.48339C14.2467 3.532 14.0446 2.82905 13.6075 2.39198C13.1704 1.9549 12.4675 1.75274 11.5161 1.86251C10.7617 1.94955 9.89217 2.23051 8.97388 2.69788ZM13.9118 8.00009C14.5821 6.82331 15.0088 5.65115 15.1303 4.59801C15.2604 3.47109 15.0445 2.41477 14.3146 1.68487C13.5847 0.954974 12.5284 0.739082 11.4015 0.869105C10.3483 0.990616 9.17616 1.41736 7.9994 2.08761C6.82266 1.41739 5.65054 0.990684 4.59743 0.86919C3.47055 0.739185 2.41426 0.955083 1.68438 1.68496C0.954493 2.41485 0.738599 3.47116 0.868613 4.59806C0.990115 5.65119 1.41684 6.82333 2.08708 8.00008C1.41689 9.1768 0.990211 10.3489 0.868732 11.402C0.738744 12.5288 0.954647 13.5851 1.68451 14.315C2.41437 15.0448 3.47064 15.2607 4.5975 15.1308C5.65059 15.0093 6.82269 14.5826 7.9994 13.9124C9.17614 14.5826 10.3483 15.0093 11.4014 15.1308C12.5283 15.2608 13.5846 15.045 14.3145 14.3151C15.0443 13.5852 15.2602 12.5289 15.1302 11.402C15.0087 10.3489 14.582 9.17682 13.9118 8.00009ZM12.7457 8.00007C12.1877 7.11666 11.4755 6.22174 10.6266 5.37282C9.7777 4.52391 8.8828 3.81174 7.99941 3.25379C7.11607 3.81172 6.22122 4.52386 5.37236 5.37273C4.52341 6.22168 3.81121 7.11663 3.25325 8.00007C3.81119 8.88344 4.52334 9.77833 5.37223 10.6272C6.22113 11.4761 7.11602 12.1883 7.99941 12.7462C8.88284 12.1883 9.77779 11.4761 10.6267 10.6271C11.4756 9.77826 12.1877 8.88341 12.7457 8.00007ZM8.9739 13.3021C9.77623 12.7538 10.5744 12.0937 11.3338 11.3342C12.0932 10.5749 12.7533 9.77679 13.3015 8.97457C13.7689 9.89281 14.0498 10.7623 14.1368 11.5166C14.2466 12.468 14.0444 13.1709 13.6073 13.608C13.1703 14.045 12.4674 14.2472 11.516 14.1374C10.7617 14.0504 9.89215 13.7695 8.9739 13.3021ZM7.0249 13.3021C6.22263 12.7538 5.42453 12.0937 4.66512 11.3343C3.90573 10.5749 3.24563 9.77684 2.69736 8.97458C2.23006 9.8928 1.94916 10.7623 1.86214 11.5166C1.7524 12.4679 1.95456 13.1708 2.39162 13.6079C2.82868 14.0449 3.53158 14.2471 4.48291 14.1373C5.23722 14.0503 6.10668 13.7694 7.0249 13.3021ZM2.69734 7.02558C3.24564 6.22325 3.90579 5.42509 4.66525 4.66562C5.42463 3.90624 6.22269 3.24616 7.02493 2.6979C6.10667 2.23056 5.23717 1.94963 4.48283 1.8626C3.53147 1.75285 2.82855 1.955 2.39149 2.39207C1.95441 2.82914 1.75226 3.53207 1.86202 4.48345C1.94905 5.2378 2.22999 6.10732 2.69734 7.02558ZM7.99948 6.8333C7.35515 6.8333 6.83281 7.35564 6.83281 7.99997C6.83281 8.6443 7.35515 9.16664 7.99948 9.16664C8.64381 9.16664 9.16615 8.6443 9.16615 7.99997C9.16615 7.35564 8.64381 6.8333 7.99948 6.8333ZM5.83281 7.99997C5.83281 6.80335 6.80286 5.8333 7.99948 5.8333C9.1961 5.8333 10.1661 6.80335 10.1661 7.99997C10.1661 9.19659 9.1961 10.1666 7.99948 10.1666C6.80286 10.1666 5.83281 9.19659 5.83281 7.99997Z" fill="#0D121C"/>
</g>
<defs>
<clipPath id="clip0_251_364">
<rect width="16" height="16" fill="white"/>
</clipPath>
</defs>
</svg>
