<svg width="16" height="16" viewBox="0 0 16 16" fill="none" xmlns="http://www.w3.org/2000/svg">
<g clip-path="url(#clip0_251_342)">
<path fill-rule="evenodd" clip-rule="evenodd" d="M10.2551 0.163353C10.4731 0.38132 10.4731 0.734715 10.2551 0.952682C9.94569 1.26212 9.66757 1.59117 9.42173 1.93461L10.3198 2.83268C10.5378 3.05065 10.5378 3.40405 10.3198 3.62201C10.1018 3.83998 9.74845 3.83998 9.53048 3.62201L8.82513 2.91666C8.66878 3.22474 8.53602 3.53962 8.42742 3.85817L12.0577 7.48847C12.0851 7.51587 12.1091 7.54542 12.1296 7.57658C12.4331 7.47371 12.7334 7.34892 13.0276 7.20269L10.7892 4.96431C10.5712 4.74634 10.5712 4.39295 10.7892 4.17498C11.0072 3.95701 11.3606 3.95701 11.5785 4.17498L14.0164 6.61284C14.3775 6.35858 14.7231 6.06884 15.0472 5.74475C15.2652 5.52678 15.6186 5.52678 15.8365 5.74475C16.0545 5.96272 16.0545 6.31611 15.8365 6.53408C13.8848 8.48583 11.1751 9.40188 8.72452 8.92522C9.28261 11.2877 8.4271 13.9435 6.5342 15.8364C6.31623 16.0544 5.96284 16.0544 5.74487 15.8364C5.5269 15.6184 5.5269 15.265 5.74487 15.0471C6.0699 14.722 6.35764 14.3738 6.60684 14.0094L5.59952 13.0021C5.38156 12.7841 5.38156 12.4307 5.59952 12.2128C5.81749 11.9948 6.17088 11.9948 6.38885 12.2128L7.1795 13.0034C7.31833 12.7038 7.43346 12.3983 7.52431 12.09C7.51205 12.0797 7.50013 12.0688 7.48859 12.0572L3.9076 8.47624C3.58038 8.57281 3.2562 8.69674 2.93895 8.84735L5.04583 10.9542C5.26379 11.1722 5.26379 11.5256 5.04583 11.7436C4.82786 11.9615 4.47447 11.9615 4.2565 11.7436L1.94047 9.42753C1.59419 9.66868 1.26294 9.94487 0.952804 10.255C0.734837 10.473 0.381442 10.473 0.163475 10.255C-0.0544918 10.037 -0.0544918 9.68365 0.163475 9.46568C2.05638 7.57278 4.71215 6.71727 7.07466 7.27536C6.598 4.82482 7.51405 2.11511 9.4658 0.163353C9.68377 -0.0546138 10.0372 -0.0546138 10.2551 0.163353ZM10.8658 7.8752L8.12468 5.13409C8.00696 6.00431 8.07049 6.87111 8.3267 7.67318C9.12877 7.92939 9.99557 7.99292 10.8658 7.8752ZM7.50161 8.7098C7.72387 9.35541 7.80898 10.0495 7.76381 10.7538L5.24608 8.23607C5.95037 8.1909 6.64446 8.276 7.29008 8.49827L7.44744 8.55244L7.50161 8.7098Z" fill="#0D121C"/>
</g>
<defs>
<clipPath id="clip0_251_342">
<rect width="16" height="16" fill="white"/>
</clipPath>
</defs>
</svg>
