<svg width="296" height="84" viewBox="0 0 296 84" fill="none" xmlns="http://www.w3.org/2000/svg">
<path d="M0 57.5319C0 56.8759 0.53726 56.344 1.2 56.344H7.89386C8.55661 56.344 9.09387 56.8759 9.09387 57.5319V82.4425C9.09387 83.0986 8.55661 83.6304 7.89386 83.6304H1.2C0.537259 83.6304 0 83.0986 0 82.4425V57.5319Z" fill="white"/>
<path d="M51.1488 56.344H42.9397C42.6955 56.344 42.4965 56.5404 42.4965 56.7828V74.992C42.4965 75.1409 42.5328 75.3267 42.5968 75.5548L28.9365 56.5283C28.8533 56.4127 28.7184 56.344 28.5749 56.344H15.1413C14.8976 56.344 14.6987 56.5404 14.6987 56.7828V83.1922C14.6987 83.4346 14.8976 83.6304 15.1413 83.6304H23.3509C23.5947 83.6304 23.7936 83.4346 23.7936 83.1922V64.9819C23.7936 64.8484 23.7659 64.69 23.7125 64.4973L37.3552 83.4467C37.4384 83.5623 37.5717 83.6304 37.7152 83.6304H51.1488C51.3925 83.6304 51.592 83.4346 51.592 83.1922V56.7828C51.592 56.5404 51.3925 56.344 51.1488 56.344Z" fill="white"/>
<path d="M90.6932 56.344H58.9391C58.6954 56.344 58.4964 56.5404 58.4964 56.7828V63.6156C58.4964 63.8579 58.6954 64.0543 58.9391 64.0543H70.2879V83.1922C70.2879 83.4346 70.4868 83.6304 70.7306 83.6304H78.938C79.1823 83.6304 79.3812 83.4346 79.3812 83.1922V64.0543H90.6932C90.937 64.0543 91.1364 63.8579 91.1364 63.6156V56.7828C91.1364 56.5404 90.937 56.344 90.6932 56.344Z" fill="white"/>
<path d="M105.456 73.0665H119.23C120.519 73.0665 121.175 73.3353 121.175 74.8077C121.175 76.2116 119.815 76.3631 119.23 76.3631H105.456V73.0665ZM119.566 66.2797H105.456V63.6108H119.566C120.71 63.6108 121.175 63.9968 121.175 64.945C121.175 65.6044 120.985 66.2797 119.566 66.2797ZM127.054 69.6037C128.475 68.5673 129.3 66.6308 129.3 64.2439C129.3 56.9549 124.833 56.3441 120.647 56.3441H96.8052C96.5615 56.3441 96.3625 56.5404 96.3625 56.7828V83.1922C96.3625 83.4346 96.5615 83.631 96.8052 83.631H121.619C127.763 83.631 130.269 81.385 130.269 75.8784C130.269 72.8902 129.215 70.8296 127.054 69.6037Z" fill="white"/>
<path d="M161.765 70.0055C161.765 76.2897 161.765 76.2897 152.768 76.2897C143.808 76.2897 143.809 76.2897 143.809 70.0055C143.809 63.6842 143.808 63.6842 152.805 63.6842C161.765 63.6842 161.765 63.6842 161.765 70.0055ZM152.768 55.974C135.215 55.974 134.713 57.1629 134.713 70.0055C134.713 82.8147 135.215 84 152.768 84C170.357 84 170.861 82.8147 170.861 70.0055C170.861 57.1629 170.357 55.974 152.768 55.974Z" fill="white"/>
<path d="M198.705 71.5249H189.987L193.975 63.1309H194.716L198.705 71.5249ZM201.739 56.5874C201.664 56.4386 201.51 56.3441 201.342 56.3441H187.35C187.182 56.3441 187.028 56.4386 186.954 56.5874L173.707 82.9969C173.638 83.1331 173.646 83.2941 173.726 83.4235C173.807 83.5518 173.949 83.631 174.103 83.631H183.693C183.853 83.631 183.999 83.547 184.077 83.4097L186.488 79.2352H202.241L204.653 83.4097C204.731 83.547 204.878 83.631 205.037 83.631H214.625C214.779 83.631 214.921 83.5518 215.003 83.4235C215.082 83.2941 215.091 83.1331 215.021 82.9969L201.739 56.5874Z" fill="white"/>
<path d="M227.711 64.0543H240.438C241.804 64.0543 242.496 64.4038 242.496 66.3119C242.496 68.1893 241.804 68.533 240.438 68.533H227.711V64.0543ZM251.591 64.4656C251.591 58.6217 249.165 56.344 242.939 56.344H219.059C218.814 56.344 218.615 56.5404 218.615 56.7828V83.1922C218.615 83.4346 218.814 83.6304 219.059 83.6304H227.268C227.512 83.6304 227.711 83.4346 227.711 83.1922V76.2433H240.252C242.387 76.2433 242.496 78.0932 242.496 78.4644V83.1922C242.496 83.4346 242.695 83.6304 242.939 83.6304H251.148C251.392 83.6304 251.591 83.4346 251.591 83.1922V77.2823C251.591 73.9831 250.73 72.9731 248.512 71.9198C250.74 70.7008 251.591 68.5604 251.591 64.4656Z" fill="white"/>
<path d="M267.107 64.0543H280.059C283.063 64.0543 284.131 64.9534 284.131 70.0055C284.131 74.6494 283.255 75.9201 280.059 75.9201H267.107V64.0543ZM281.438 56.344H258.454C258.21 56.344 258.011 56.5404 258.011 56.7828V83.1922C258.011 83.4346 258.21 83.6304 258.454 83.6304H281.438C291.444 83.6304 293.225 80.0609 293.225 70.0055C293.225 59.7546 291.522 56.344 281.438 56.344Z" fill="white"/>
<path d="M260.229 22.3853V19.6067H257.628V17.8338H260.229V15.1291H262.019V17.8338H264.714V19.6067H262.019V22.3853H260.229Z" fill="white"/>
<path d="M253.971 26.0378H251.757V11.0723H253.971V26.0378ZM269.918 26.0378H267.705V11.0723H269.918V26.0378ZM272.383 15.8968H285.064V17.7325H272.383V15.8968ZM272.383 20.1178H285.064V21.9535H272.383V20.1178Z" fill="white"/>
<path d="M294.912 48.648L284.168 28.2668C283.714 27.4094 282.65 27.0742 281.776 27.5229L279.947 28.468C279.532 28.6839 279.217 29.054 279.077 29.4975C278.937 29.941 278.98 30.4225 279.196 30.8353L289.942 51.2166C290.16 51.6289 290.534 51.9388 290.982 52.0782C291.155 52.1326 291.335 52.159 291.514 52.159C291.797 52.159 292.077 52.0919 292.334 51.9594L294.161 51.0144C295.028 50.5666 295.364 49.507 294.912 48.648Z" fill="white"/>
<path d="M288.983 0H245.87C242.001 0 238.853 3.116 238.853 6.94527V32.8516C238.853 36.6808 242.001 39.7968 245.87 39.7968H277.578C277.81 39.7968 278.026 39.677 278.145 39.4801C278.266 39.2826 278.275 39.0387 278.166 38.8349L276.778 36.2036C276.664 35.986 276.437 35.8498 276.19 35.8498H245.87C244.201 35.8498 242.84 34.5046 242.84 32.8516V6.94527C242.84 5.29224 244.201 3.947 245.87 3.947H288.983C290.653 3.947 292.013 5.29224 292.013 6.94527V34.5616C291.985 36.2886 293.667 36.6724 294.034 36.6724C294.034 36.6724 296 36.4802 296 34.5616V6.94527C296 3.116 292.852 0 288.983 0Z" fill="white"/>
</svg>
