<svg width="22" height="21" viewBox="0 0 22 21" fill="none" xmlns="http://www.w3.org/2000/svg">
<path fill-rule="evenodd" clip-rule="evenodd" d="M4 0C1.79086 0 0 1.79086 0 4V14C0 16.2091 1.79086 18 4 18H10V19H7C6.44772 19 6 19.4477 6 20C6 20.5523 6.44772 21 7 21H15C15.5523 21 16 20.5523 16 20C16 19.4477 15.5523 19 15 19H12V18H18C20.2091 18 22 16.2091 22 14V4C22 1.79086 20.2091 0 18 0H4ZM18 16C19.1046 16 20 15.1046 20 14V4C20 2.89543 19.1046 2 18 2H4C2.89543 2 2 2.89543 2 4V14C2 15.1046 2.89543 16 4 16H18Z" fill="#2E90FA"/>
</svg>
