<svg width="22" height="16" viewBox="0 0 22 16" fill="none" xmlns="http://www.w3.org/2000/svg">
<path d="M4 2.5C3.44772 2.5 3 2.94772 3 3.5C3 4.05228 3.44772 4.5 4 4.5H6C6.55228 4.5 7 4.05228 7 3.5C7 2.94772 6.55228 2.5 6 2.5H4Z" fill="#2E90FA"/>
<path d="M15 3.5C15 2.94772 15.4477 2.5 16 2.5H18C18.5523 2.5 19 2.94772 19 3.5C19 4.05228 18.5523 4.5 18 4.5H16C15.4477 4.5 15 4.05228 15 3.5Z" fill="#2E90FA"/>
<path d="M4 11.5C3.44772 11.5 3 11.9477 3 12.5C3 13.0523 3.44772 13.5 4 13.5H6C6.55228 13.5 7 13.0523 7 12.5C7 11.9477 6.55228 11.5 6 11.5H4Z" fill="#2E90FA"/>
<path d="M15 12.5C15 11.9477 15.4477 11.5 16 11.5H18C18.5523 11.5 19 11.9477 19 12.5C19 13.0523 18.5523 13.5 18 13.5H16C15.4477 13.5 15 13.0523 15 12.5Z" fill="#2E90FA"/>
<path fill-rule="evenodd" clip-rule="evenodd" d="M11 5C12.6569 5 14 6.34315 14 8C14 9.65685 12.6569 11 11 11C9.34315 11 8 9.65685 8 8C8 6.34315 9.34315 5 11 5ZM12 8C12 7.44772 11.5523 7 11 7C10.4477 7 10 7.44772 10 8C10 8.55228 10.4477 9 11 9C11.5523 9 12 8.55228 12 8Z" fill="#2E90FA"/>
<path fill-rule="evenodd" clip-rule="evenodd" d="M4 0C1.79086 0 0 1.79086 0 4V12C0 14.2091 1.79086 16 4 16H18C20.2091 16 22 14.2091 22 12V4C22 1.79086 20.2091 0 18 0H4ZM2 4C2 2.89543 2.89543 2 4 2H18C19.1046 2 20 2.89543 20 4V12C20 13.1046 19.1046 14 18 14H4C2.89543 14 2 13.1046 2 12V4Z" fill="#2E90FA"/>
</svg>
