<svg width="22" height="20" viewBox="0 0 22 20" fill="none" xmlns="http://www.w3.org/2000/svg">
<path fill-rule="evenodd" clip-rule="evenodd" d="M11.2999 0.213761C10.8249 -0.0712529 10.2315 -0.0712542 9.75643 0.21376L0.728256 5.63066C-0.242752 6.21327 -0.242752 7.62054 0.728256 8.20314L2.52817 9.28309V15.6827C2.52817 16.1206 2.72116 16.5673 3.11195 16.8598C3.87314 17.4297 6.7794 19.4169 10.5282 19.4169C14.277 19.4169 17.1832 17.4297 17.9444 16.8598C18.3352 16.5673 18.5282 16.1206 18.5282 15.6827V9.28309L20.3281 8.20314C21.2991 7.62054 21.2991 6.21327 20.3281 5.63066L11.2999 0.213761ZM2.47183 6.9169L10.5282 2.0831L18.5845 6.9169L15.2226 8.93404L11.6094 6.35317C11.16 6.03216 10.5354 6.13625 10.2144 6.58567C9.89343 7.03508 9.99752 7.65963 10.4469 7.98064L13.3526 10.0561L10.5282 11.7507L2.47183 6.9169ZM13.5282 12.2831L11.2999 13.62C10.8249 13.9051 10.2315 13.9051 9.75643 13.62L4.52817 10.4831V15.416C5.41083 16.0331 7.71251 17.4169 10.5282 17.4169C13.3438 17.4169 15.6455 16.0331 16.5282 15.416V10.4831L15.5282 11.0831V13.6669C15.5282 14.2192 15.0805 14.6669 14.5282 14.6669C13.9759 14.6669 13.5282 14.2192 13.5282 13.6669V12.2831Z" fill="#2E90FA"/>
</svg>
