<svg width="22" height="22" viewBox="0 0 22 22" fill="none" xmlns="http://www.w3.org/2000/svg">
<path fill-rule="evenodd" clip-rule="evenodd" d="M10.6224 4.98318C7.30872 4.98318 4.62243 7.66948 4.62243 10.9832C4.62243 14.2969 7.30872 16.9832 10.6224 16.9832C13.9361 16.9832 16.6224 14.2969 16.6224 10.9832C16.6224 7.66948 13.9361 4.98318 10.6224 4.98318ZM6.62243 10.9832C6.62243 8.77404 8.41329 6.98318 10.6224 6.98318C12.8316 6.98318 14.6224 8.77404 14.6224 10.9832C14.6224 13.1923 12.8316 14.9832 10.6224 14.9832C8.41329 14.9832 6.62243 13.1923 6.62243 10.9832Z" fill="#2E90FA"/>
<path fill-rule="evenodd" clip-rule="evenodd" d="M13.1242 1.01209C11.7293 -0.337362 9.51554 -0.337362 8.12062 1.01209C7.76632 1.35484 7.27367 1.51491 6.78557 1.44587C4.86387 1.17406 3.07288 2.47528 2.73756 4.38692C2.65238 4.87247 2.34791 5.29154 1.91245 5.52258C0.197997 6.43223 -0.486099 8.53766 0.366248 10.2813C0.582739 10.7242 0.582739 11.2422 0.366248 11.6851C-0.486099 13.4287 0.197997 15.5341 1.91245 16.4438C2.34791 16.6748 2.65238 17.0939 2.73756 17.5794C3.07288 19.4911 4.86387 20.7923 6.78557 20.5205C7.27367 20.4515 7.76632 20.6115 8.12062 20.9543C9.51554 22.3037 11.7293 22.3037 13.1242 20.9543C13.4785 20.6115 13.9712 20.4515 14.4593 20.5205C16.381 20.7923 18.172 19.4911 18.5073 17.5794C18.5925 17.0939 18.8969 16.6748 19.3324 16.4438C21.0469 15.5341 21.731 13.4287 20.8786 11.6851C20.6621 11.2422 20.6621 10.7242 20.8786 10.2813C21.731 8.53766 21.0469 6.43223 19.3324 5.52258C18.8969 5.29154 18.5925 4.87247 18.5073 4.38692C18.172 2.47528 16.381 1.17406 14.4593 1.44587C13.9712 1.51491 13.4785 1.35484 13.1242 1.01209ZM9.51121 2.44953C10.1308 1.85016 11.1141 1.85016 11.7336 2.44953C12.5313 3.22121 13.6405 3.58159 14.7394 3.42616C15.5929 3.30543 16.3884 3.88339 16.5374 4.73247C16.7291 5.82563 17.4146 6.76913 18.395 7.28931C19.1565 7.69334 19.4604 8.6285 19.0818 9.40298C18.5944 10.4001 18.5944 11.5663 19.0818 12.5634C19.4604 13.3379 19.1565 14.273 18.395 14.6771C17.4146 15.1972 16.7291 16.1407 16.5374 17.2339C16.3884 18.083 15.5929 18.6609 14.7394 18.5402C13.6405 18.3848 12.5313 18.7452 11.7336 19.5168C11.1141 20.1162 10.1308 20.1162 9.51121 19.5168C8.71353 18.7452 7.60438 18.3848 6.50547 18.5402C5.65192 18.6609 4.85642 18.083 4.70748 17.2339C4.51572 16.1407 3.83023 15.1972 2.84983 14.6771C2.08833 14.273 1.78447 13.3379 2.16306 12.5634C2.65047 11.5663 2.65047 10.4001 2.16306 9.40298C1.78447 8.6285 2.08833 7.69334 2.84983 7.28931C3.83023 6.76913 4.51572 5.82563 4.70748 4.73247C4.85642 3.88339 5.65192 3.30543 6.50547 3.42616C7.60438 3.58159 8.71353 3.22121 9.51121 2.44953Z" fill="#2E90FA"/>
</svg>
