<svg width="20" height="21" viewBox="0 0 20 21" fill="none" xmlns="http://www.w3.org/2000/svg">
<path fill-rule="evenodd" clip-rule="evenodd" d="M6 6.29323V18.0084C6 19.113 5.10457 20.0084 4 20.0084H2C0.895431 20.0084 0 19.113 0 18.0084V2.00843C0 0.903862 0.89543 0.00842981 2 0.00842981H4C4.74846 0.00842981 5.40089 0.419564 5.74379 1.02831C5.98827 0.795037 6.29524 0.620641 6.64698 0.534381L8.58943 0.0580235C9.66221 -0.205062 10.7451 0.451327 11.0082 1.52411L14 13.7237V2.00843C14 0.903862 14.8954 0.00842981 16 0.00842981H18C19.1046 0.00842981 20 0.90386 20 2.00843V18.0084C20 19.113 19.1046 20.0084 18 20.0084H16C15.2515 20.0084 14.5991 19.5973 14.2562 18.9885C14.0117 19.2218 13.7047 19.3962 13.353 19.4825L11.4106 19.9588C10.3378 20.2219 9.25484 19.5655 8.99176 18.4927L6 6.29323ZM7.12334 2.47682L9.06578 2.00047L12.8766 17.54L10.9342 18.0164L7.12334 2.47682ZM4 2.00843L2 2.00843V18.0084H4V2.00843ZM18 2.00843L16 2.00843V18.0084H18V2.00843Z" fill="#2E90FA"/>
</svg>
