<svg width="140" height="40" viewBox="0 0 140 40" fill="none" xmlns="http://www.w3.org/2000/svg">
<path d="M0 27.3962C0 27.0838 0.253259 26.8305 0.565669 26.8305H3.72109C4.0335 26.8305 4.28676 27.0838 4.28676 27.3962V39.2583C4.28676 39.5707 4.0335 39.824 3.72109 39.824H0.565669C0.253258 39.824 0 39.5707 0 39.2583V27.3962Z" fill="white"/>
<path d="M24.111 26.8305H20.2414C20.1262 26.8305 20.0324 26.924 20.0324 27.0394V35.7105C20.0324 35.7814 20.0495 35.8699 20.0797 35.9785L13.6404 26.9182C13.6012 26.8632 13.5376 26.8305 13.4699 26.8305H7.13747C7.02258 26.8305 6.9288 26.924 6.9288 27.0394V39.6153C6.9288 39.7307 7.02258 39.824 7.13747 39.824H11.0074C11.1223 39.824 11.2161 39.7307 11.2161 39.6153V30.9438C11.2161 30.8802 11.203 30.8048 11.1778 30.713L17.6089 39.7365C17.6481 39.7916 17.7109 39.824 17.7786 39.824H24.111C24.2259 39.824 24.3199 39.7307 24.3199 39.6153V27.0394C24.3199 26.924 24.2259 26.8305 24.111 26.8305Z" fill="white"/>
<path d="M42.7519 26.8305H27.7833C27.6684 26.8305 27.5746 26.924 27.5746 27.0394V30.2931C27.5746 30.4085 27.6684 30.5021 27.7833 30.5021H33.133V39.6153C33.133 39.7307 33.2268 39.824 33.3417 39.824H37.2106C37.3257 39.824 37.4195 39.7307 37.4195 39.6153V30.5021H42.7519C42.8668 30.5021 42.9608 30.4085 42.9608 30.2931V27.0394C42.9608 26.924 42.8668 26.8305 42.7519 26.8305Z" fill="white"/>
<path d="M49.7108 34.7936H56.2039C56.8116 34.7936 57.1208 34.9216 57.1208 35.6227C57.1208 36.2912 56.4797 36.3634 56.2039 36.3634H49.7108V34.7936ZM56.3623 31.5617H49.7108V30.2909H56.3623C56.9013 30.2909 57.1208 30.4747 57.1208 30.9262C57.1208 31.2402 57.0311 31.5617 56.3623 31.5617ZM59.8918 33.1446C60.5616 32.6511 60.9508 31.7289 60.9508 30.5923C60.9508 27.1214 58.8452 26.8305 56.8719 26.8305H45.633C45.5181 26.8305 45.4243 26.924 45.4243 27.0394V39.6153C45.4243 39.7307 45.5181 39.8243 45.633 39.8243H57.3297C60.2262 39.8243 61.4073 38.7548 61.4073 36.1326C61.4073 34.7096 60.9108 33.7284 59.8918 33.1446Z" fill="white"/>
<path d="M76.2545 33.3359C76.2545 36.3284 76.2545 36.3284 72.0135 36.3284C67.7898 36.3284 67.7899 36.3284 67.7899 33.3359C67.7899 30.3258 67.7899 30.3258 72.0306 30.3258C76.2545 30.3258 76.2545 30.3258 76.2545 33.3359ZM72.0135 26.6543C63.7389 26.6543 63.5023 27.2204 63.5023 33.3359C63.5023 39.4356 63.7389 40 72.0135 40C80.3044 40 80.542 39.4356 80.542 33.3359C80.542 27.2204 80.3044 26.6543 72.0135 26.6543Z" fill="white"/>
<path d="M93.6675 34.0595H89.558L91.4381 30.0623H91.7873L93.6675 34.0595ZM95.0975 26.9464C95.0624 26.8755 94.99 26.8305 94.9108 26.8305H88.3148C88.2356 26.8305 88.163 26.8755 88.128 26.9464L81.8836 39.5223C81.8511 39.5872 81.8551 39.6639 81.8926 39.7255C81.9311 39.7866 81.9979 39.8243 82.0703 39.8243H86.5912C86.6663 39.8243 86.7355 39.7843 86.7722 39.7189L87.9085 37.731H95.3341L96.4712 39.7189C96.5079 39.7843 96.5773 39.8243 96.6523 39.8243H101.172C101.245 39.8243 101.312 39.7866 101.35 39.7255C101.388 39.6639 101.392 39.5872 101.359 39.5223L95.0975 26.9464Z" fill="white"/>
<path d="M107.341 30.5021H113.34C113.984 30.5021 114.31 30.6685 114.31 31.5771C114.31 32.4711 113.984 32.6348 113.34 32.6348H107.341V30.5021ZM118.598 30.6979C118.598 27.9151 117.454 26.8305 114.519 26.8305H103.262C103.147 26.8305 103.053 26.924 103.053 27.0394V39.6153C103.053 39.7307 103.147 39.824 103.262 39.824H107.132C107.247 39.824 107.341 39.7307 107.341 39.6153V36.3063H113.252C114.259 36.3063 114.31 37.1872 114.31 37.364V39.6153C114.31 39.7307 114.404 39.824 114.519 39.824H118.389C118.504 39.824 118.598 39.7307 118.598 39.6153V36.8011C118.598 35.23 118.191 34.7491 117.146 34.2475C118.196 33.667 118.598 32.6478 118.598 30.6979Z" fill="white"/>
<path d="M125.911 30.5021H132.017C133.433 30.5021 133.936 30.9302 133.936 33.3359C133.936 35.5473 133.524 36.1525 132.017 36.1525H125.911V30.5021ZM132.667 26.8305H121.833C121.718 26.8305 121.624 26.924 121.624 27.0394V39.6153C121.624 39.7307 121.718 39.824 121.833 39.824H132.667C137.384 39.824 138.223 38.1242 138.223 33.3359C138.223 28.4546 137.42 26.8305 132.667 26.8305Z" fill="white"/>
<path d="M122.669 10.6597V9.33653H121.443V8.4923H122.669V7.20434H123.513V8.4923H124.783V9.33653H123.513V10.6597H122.669Z" fill="white"/>
<path d="M119.719 12.3989H118.676V5.27252H119.719V12.3989ZM127.237 12.3989H126.193V5.27252H127.237V12.3989ZM128.399 7.56989H134.376V8.44403H128.399V7.56989ZM128.399 9.57989H134.376V10.454H128.399V9.57989Z" fill="white"/>
<path d="M139.019 23.1657L133.954 13.4604C133.74 13.0521 133.238 12.8925 132.826 13.1062L131.964 13.5562C131.768 13.659 131.62 13.8352 131.554 14.0464C131.488 14.2576 131.508 14.4869 131.61 14.6835L136.676 24.3888C136.778 24.5852 136.955 24.7328 137.166 24.7991C137.248 24.825 137.332 24.8376 137.417 24.8376C137.55 24.8376 137.682 24.8057 137.803 24.7426L138.665 24.2925C139.073 24.0794 139.231 23.5748 139.019 23.1657Z" fill="white"/>
<path d="M136.224 0H115.901C114.077 0 112.593 1.48381 112.593 3.30727V15.6436C112.593 17.4671 114.077 18.9509 115.901 18.9509H130.847C130.957 18.9509 131.058 18.8938 131.115 18.8C131.172 18.706 131.176 18.5899 131.125 18.4928L130.47 17.2398C130.417 17.1362 130.31 17.0714 130.193 17.0714H115.901C115.114 17.0714 114.472 16.4308 114.472 15.6436V3.30727C114.472 2.52011 115.114 1.87952 115.901 1.87952H136.224C137.011 1.87952 137.652 2.52011 137.652 3.30727V16.4579C137.639 17.2803 138.432 17.463 138.605 17.463C138.605 17.463 139.531 17.3715 139.531 16.4579V3.30727C139.531 1.48381 138.048 0 136.224 0Z" fill="white"/>
</svg>
