<svg width="100" height="17" viewBox="0 0 100 17" fill="none" xmlns="http://www.w3.org/2000/svg">
<path d="M10.75 1.4375H10.1875V0H6.75V1.4375H6.125C2.375 1.4375 0 3.3125 0 6.6875V7.3125C0 10.625 2.3125 12.5 6.1875 12.5H6.75V13.9375H10.1875V12.5H10.75C14.5625 12.5 16.9375 10.625 16.9375 7.25V6.625C16.9375 3.1875 14.5625 1.375 10.75 1.375V1.4375ZM6 10.0625C4.3125 10.0625 3.4375 9 3.4375 7.125V6.875C3.4375 5 4.3125 3.9375 6 3.9375H6.75V10H6V10.0625ZM13.5 7.125C13.5 9 12.5625 10.0625 10.875 10.0625H10.1875V3.9375H10.875C12.5625 3.9375 13.5 4.9375 13.5 6.875V7.125ZM23.9375 4C20.625 4 18.375 6.0625 18.375 9C18.375 12 20.625 14 23.9375 14C27.25 14 29.5 12 29.5 9C29.5 6.0625 27.25 4 23.9375 4ZM23.9375 11.5C22.5 11.5 21.5625 10.5 21.5625 9C21.5625 7.5 22.5 6.5 23.9375 6.5C25.3125 6.5 26.3125 7.5 26.3125 9C26.3125 10.5 25.3125 11.5 23.9375 11.5ZM42.0625 4.1875H38.4375L34.6875 8.6875V4.1875H31.5625V13.8125H34.6875V9.3125L38.4375 13.8125H42.3125L37.9375 8.8125L42.0625 4.1875ZM48 6.5C49.0625 6.5 49.8125 7.125 50.0625 8H53.1875C52.9375 5.625 51 4 48.0625 4C44.75 4 42.5 6.0625 42.5 9C42.5 12 44.75 14 48.125 14C51 14 52.9375 12.375 53.125 10.0625H50.0625C49.9367 10.5076 49.6649 10.8974 49.2909 11.1695C48.9168 11.4415 48.4622 11.5799 48 11.5625C46.625 11.5625 45.6875 10.5 45.6875 9.0625C45.6875 7.5 46.625 6.5 48 6.5ZM54 4.1875V6.75H57.5V13.8125H60.625V6.75H64.0625V4.25H54.0625L54 4.1875ZM71.6875 4.125C70.4375 4.125 69.3125 4.625 68.5625 5.5625V4.1875H65.625V16.6875H68.75V12.6875C69.5 13.4375 70.5 13.9375 71.6875 13.9375C74.5625 13.9375 76.5 11.875 76.5 9C76.5 6.125 74.5625 4.125 71.6875 4.125ZM70.9375 11.5625C69.5625 11.5625 68.5625 10.5 68.5625 9.0625C68.5625 7.5 69.5625 6.5 70.9375 6.5C72.375 6.5 73.3125 7.5 73.3125 9C73.3125 10.5 72.375 11.5 70.9375 11.5V11.5625ZM83.5625 4C80.25 4 78 6.0625 78 9C78 12 80.25 14 83.5625 14C86.875 14 89.125 12 89.125 9C89.125 6.0625 86.875 4 83.5 4H83.5625ZM83.5625 11.5C82.125 11.5 81.1875 10.5 81.1875 9C81.1875 7.5 82.125 6.5 83.5625 6.5C84.9375 6.5 85.9375 7.5 85.9375 9C85.9375 10.5 84.9375 11.5 83.5625 11.5ZM90 4.1875V6.75H93.4375V13.8125H96.5625V6.75H100V4.25H90V4.1875Z" fill="#E95D2A"/>
</svg>
