<svg width="100" height="24" viewBox="0 0 100 24" fill="none" xmlns="http://www.w3.org/2000/svg">
<path d="M12.1931 0L88.3612 0.00517241C91.0123 0.000673942 93.5857 0.900833 95.656 2.5569C98.3491 4.69483 100.029 8.07845 100.008 11.5284C100.065 14.3707 98.9905 17.2095 97.1 19.3276C94.9327 21.8147 91.6672 23.2534 88.3758 23.2672L14.5827 23.2698C12.5094 23.2552 10.3879 23.4078 8.37582 22.7845C4.60858 21.7103 1.50168 18.6017 0.453403 14.8224C-0.356942 12.0983 -0.0603902 9.10431 1.17754 6.55259C2.77409 3.23276 6.03271 0.781035 9.66461 0.172414C10.4982 0.0310345 11.35 0 12.1931 0Z" fill="#43B02A"/>
<path d="M86.3156 5.51048C89.2725 4.64841 92.6605 6.26307 93.8915 9.07427C94.7898 10.9794 94.6518 13.3157 93.5432 15.1088C92.3536 17.1174 90.0044 18.3889 87.6665 18.2225C84.6363 18.1475 81.9251 15.6294 81.57 12.6294C81.0786 9.50617 83.2493 6.26737 86.3165 5.5122L86.3156 5.51048Z" fill="#FF671F"/>
<path d="M11.7907 4.41737C14.6252 3.9234 17.683 5.31219 19.1942 7.75961C19.9252 8.95185 18.8562 10.7337 17.4424 10.5312C16.6468 10.6346 16.0864 10.0079 15.6597 9.43202C14.62 8.14064 12.645 7.8053 11.22 8.63892C9.78038 9.41133 8.96572 11.3001 9.55969 12.8527C10.008 14.357 11.57 15.4708 13.1442 15.3148C14.414 15.37 15.3856 14.4527 16.1787 13.5751C17.233 12.5553 19.1597 13.4243 19.2502 14.8424C19.3968 16.095 18.2821 16.976 17.4269 17.6872C14.6252 19.8898 10.27 19.6044 7.77176 17.0665C5.21486 14.67 4.789 10.4053 6.83469 7.55444C7.96572 5.88633 9.80624 4.73547 11.7916 4.41133L11.7907 4.41737ZM26.064 4.45357C29.8571 3.66392 33.933 6.43116 34.6278 10.251C35.5985 14.1993 32.6321 18.4984 28.6364 19.0872C24.9037 19.8337 20.933 17.1906 20.1424 13.4768C19.0562 9.49409 22.0114 5.0734 26.0649 4.45444L26.064 4.45357ZM26.7778 8.24495C25.0218 8.50185 23.6433 10.2174 23.8019 11.9932C23.8735 13.8096 25.5459 15.4346 27.3812 15.326C29.4011 15.4268 31.1554 13.4493 30.9226 11.4579C30.8054 9.45788 28.7416 7.84409 26.7778 8.24495ZM35.9787 6.20616C35.9149 4.73461 37.8545 3.75788 38.9752 4.70616L43.5424 9.22685L47.9174 4.8665C48.4562 4.33202 49.3399 4.14926 50.0295 4.49581C50.7605 4.8234 51.2252 5.64237 51.1864 6.43719L51.1795 17.2855C51.1942 18.4036 50.0985 19.3751 48.9873 19.1863C48.0597 19.0855 47.3062 18.2243 47.3218 17.2898V10.9165L44.8416 13.3665C44.2037 13.9855 43.1519 14.07 42.445 13.5156C41.4916 12.7337 40.7149 11.7587 39.7985 10.9312L39.7769 17.3794C39.7821 18.5001 38.6045 19.4165 37.5226 19.1691C36.6433 19.0182 35.8959 18.1734 35.9743 17.2613L35.9795 6.19926L35.9787 6.20616ZM52.7683 6.27513C52.7321 5.19323 53.7312 4.26392 54.7976 4.32944L62.4959 4.33461C63.2002 4.33461 63.8856 4.76564 64.1993 5.40357C64.8149 6.49495 64.0054 8.10788 62.7209 8.13892L56.6131 8.16047V10.5165L61.7683 10.5191C62.9787 10.4734 64.064 11.726 63.7166 12.9191C63.5252 13.807 62.6502 14.4406 61.7545 14.4018C60.0416 14.4139 58.3278 14.3967 56.6149 14.4044L56.5976 17.4475C56.5355 18.6182 55.2295 19.4941 54.1235 19.1079C53.5752 18.9803 53.2295 18.5105 52.8968 18.0975C52.6692 17.0286 52.7821 15.9303 52.7606 14.8475L52.7692 6.2665L52.7683 6.27513ZM65.2192 6.45099C65.0226 5.18375 66.3744 4.01306 67.5933 4.38202C68.4364 4.62685 68.9209 5.41392 69.5416 5.97254L72.3175 8.71737L76.2856 4.77944C77.033 4.08978 78.2743 4.1984 78.9304 4.95185C79.62 5.66737 79.5942 6.89581 78.8821 7.58116L74.2269 12.2605L74.22 17.2639C74.2631 18.1587 73.5476 18.9846 72.6821 19.1406C71.5562 19.4044 70.3269 18.4139 70.408 17.2441L70.4028 12.2613L66.6028 8.42513C66.0424 7.84754 65.2493 7.3234 65.22 6.44237L65.2192 6.45099Z" fill="white"/>
</svg>
