<svg width="89" height="12" viewBox="0 0 89 12" fill="none" xmlns="http://www.w3.org/2000/svg">
<path d="M10.7768 2.74134H8.46072V11.8165H14.7314V9.86281H10.7768V2.74134Z" fill="#FD0028"/>
<path d="M19.458 2.74134H16.3699V11.8322H19.6628C21.5692 11.8322 22.7351 10.8712 23.1448 10.4615C23.9483 9.65799 24.3264 8.64964 24.3264 7.31042C24.3264 5.92394 23.901 4.8053 23.066 4.00177C22.1994 3.15098 21.0178 2.74134 19.458 2.74134ZM21.2226 9.20108C20.6239 9.78403 19.8204 9.86281 19.2059 9.86281H18.7017V4.69501H19.3004C19.9307 4.69501 20.6554 4.75804 21.2069 5.27797C21.6638 5.70336 21.9316 6.44387 21.9316 7.29467C21.9316 8.30302 21.5377 8.88597 21.2226 9.20108Z" fill="#FD0028"/>
<path d="M33.8585 3.923C32.992 3.0722 31.7158 2.58378 30.3765 2.58378C29.0373 2.58378 27.7611 3.0722 26.8946 3.923C26.0123 4.77379 25.5081 6.00272 25.5081 7.29467C25.5081 8.57086 26.0123 9.78403 26.8946 10.6506C27.7611 11.5014 29.0373 11.9898 30.3765 11.9898C31.7158 11.9898 32.992 11.5014 33.8585 10.6506C34.7408 9.78403 35.245 8.57086 35.245 7.29467C35.2607 6.00272 34.7566 4.77379 33.8585 3.923ZM32.1884 9.05928C31.7315 9.53194 31.117 9.76828 30.3923 9.76828C29.6833 9.76828 29.0531 9.51619 28.5804 9.04352C28.2495 8.72842 27.8714 8.17697 27.8714 7.34193C27.8714 6.64869 28.1393 6.00272 28.5804 5.54581C29.0373 5.0889 29.6991 4.82106 30.3923 4.82106C31.054 4.82106 31.7158 5.0889 32.1884 5.54581C32.6453 6.00272 32.9132 6.63294 32.9132 7.29467C32.9132 7.94064 32.6453 8.58662 32.1884 9.05928Z" fill="#FD0028"/>
<path d="M73.1212 3.923C72.2546 3.0722 70.9784 2.58378 69.6392 2.58378C68.3 2.58378 67.0238 3.0722 66.1572 3.923C65.2749 4.77379 64.7708 6.00272 64.7708 7.29467C64.7708 8.57086 65.2749 9.78403 66.1572 10.6506C67.0238 11.5014 68.3 11.9898 69.6392 11.9898C70.9784 11.9898 72.2546 11.5014 73.1212 10.6506C74.0035 9.78403 74.5077 8.57086 74.5077 7.29467C74.5077 6.00272 74.0035 4.77379 73.1212 3.923ZM71.4353 9.05928C70.9784 9.53194 70.364 9.76828 69.6392 9.76828C68.9302 9.76828 68.3 9.51619 67.8273 9.04352C67.4965 8.72842 67.1183 8.17697 67.1183 7.34193C67.1183 6.64869 67.3704 6.00272 67.8273 5.54581C68.2842 5.0889 68.946 4.82106 69.6392 4.82106C70.3009 4.82106 70.9627 5.0889 71.4353 5.54581C71.8922 6.00272 72.1601 6.63294 72.1601 7.29467C72.1601 7.94064 71.8922 8.58662 71.4353 9.05928Z" fill="#FD0028"/>
<path d="M62.4862 10.4457C63.2898 9.64222 63.6679 8.63387 63.6679 7.29465C63.6679 5.90817 63.2425 4.78953 62.4075 3.986C61.5409 3.13521 60.3435 2.72556 58.7994 2.72556H55.7114V11.8165H59.0043C60.9107 11.8165 62.0766 10.8554 62.4862 10.4457ZM58.0274 9.86279V4.695H58.6261C59.2564 4.695 59.9811 4.75802 60.5326 5.27795C60.9895 5.70335 61.2573 6.44386 61.2573 7.29465C61.2573 8.303 60.8792 8.88595 60.5483 9.18531C59.9496 9.76826 59.1461 9.84704 58.5316 9.84704H58.0274V9.86279Z" fill="#FD0028"/>
<path d="M48.5742 2.74134L45.0922 11.8322H47.55L48.1645 10.304L48.2433 10.0834C48.7632 10.2252 49.2989 10.304 49.8503 10.304C50.4018 10.304 50.9375 10.2252 51.4417 10.0834L51.5204 10.304L52.0876 11.8322H54.5612L51.1423 2.74134H48.5742ZM50.7957 8.28726C50.4806 8.36604 50.1497 8.41331 49.8188 8.41331C49.488 8.41331 49.1729 8.3818 48.8578 8.30302L49.8188 5.48279L50.7957 8.28726Z" fill="#FD0028"/>
<path d="M42.461 8.16119C42.8707 7.92486 43.2015 7.54672 43.4221 7.08982C43.6269 6.68017 43.7372 6.19175 43.7372 5.68758C43.7372 5.3252 43.6899 4.99434 43.5954 4.67923C43.3591 3.85994 42.8076 3.22972 42.0356 2.93037C41.6102 2.77282 41.1376 2.70979 40.2237 2.70979H36.6473V11.8007H38.8845V8.93321C38.8845 8.93321 39.5147 8.99623 39.7511 8.99623C39.9559 8.99623 40.1607 8.98047 40.3655 8.96472L42.0199 11.8322H44.5092L42.335 8.27148C42.3507 8.22421 42.4137 8.1927 42.461 8.16119ZM41.4527 5.86089C41.4527 6.33355 41.2478 6.68017 40.9327 6.86924C40.5546 7.08982 40.145 7.12133 39.7353 7.12133C39.436 7.12133 39.1366 7.07406 38.8688 6.99528V4.69498H39.8771C39.9874 4.69498 40.5704 4.69498 40.8697 4.82103C41.2321 4.97858 41.4527 5.27794 41.4527 5.86089Z" fill="#FD0028"/>
<path d="M0 11.8165H6.25492V9.86281H2.31605V8.24H6.09737V6.27056H2.31605V4.69501H6.25492V2.74134H0V11.8165Z" fill="#FD0028"/>
<path d="M85.9148 0H84.3865V2.61541H85.9148V0Z" fill="#FD0028"/>
<path d="M88.4988 2.59952H84.3866V4.1278H88.4988V2.59952Z" fill="#FD0028"/>
<path d="M85.915 2.59957L84.3866 2.59952L84.3867 11.8008H85.915V2.59957Z" fill="#FD0028"/>
<path d="M85.9305 2.59965H76.7293V4.12793H85.9305V2.59965Z" fill="#FD0028"/>
<path d="M85.9307 10.2725H76.7295V11.8008H85.9307V10.2725Z" fill="#FD0028"/>
<path d="M78.2576 2.59965H76.7293L76.7295 11.8008L78.2576 11.8009V2.59965Z" fill="#FD0028"/>
<path d="M82.7955 6.00255H82.118L81.2042 8.39738H81.8501L82.0077 7.98774L82.0234 7.92472C82.1652 7.95623 82.307 7.98774 82.4488 7.98774C82.5906 7.98774 82.7324 7.97199 82.8742 7.92472L82.89 7.98774L83.0318 8.39738H83.6935L82.7955 6.00255ZM82.4646 7.49932C82.3858 7.49932 82.2913 7.48357 82.2125 7.46781L82.4646 6.7273L82.7167 7.46781C82.6379 7.48357 82.5434 7.49932 82.4646 7.49932Z" fill="#FD0028"/>
<path d="M80.369 6.00276V7.48378C80.369 7.6886 80.2115 7.86191 80.0067 7.87766C79.9909 7.87766 79.9909 7.87766 79.9751 7.87766C79.9594 7.87766 79.9594 7.87766 79.9436 7.87766C79.7388 7.86191 79.5813 7.6886 79.5813 7.48378L79.5655 7.34198V6.01852H78.951V7.38924C78.951 7.81464 79.1716 8.08249 79.2662 8.17702C79.4395 8.36608 79.6758 8.44486 79.9751 8.44486C80.2745 8.44486 80.4951 8.36608 80.6841 8.17702C80.7787 8.08249 80.9993 7.81464 80.9993 7.38924V6.01852L80.369 6.00276Z" fill="#FD0028"/>
</svg>
