<svg width="35" height="32" viewBox="0 0 35 32" fill="none" xmlns="http://www.w3.org/2000/svg">
<path d="M12.9822 13.7336V12.0289H11.4022V10.9412H12.9822V9.28185H14.0689V10.9412H15.7056V12.0289H14.0689V13.7336H12.9822Z" fill="#1570EF"/>
<path d="M9.18117 15.9744H7.83664V6.79296H9.18117V15.9744ZM18.8666 15.9744H17.5221V6.79296H18.8666V15.9744ZM20.3634 9.75281H28.0649V10.879H20.3634V9.75281ZM20.3634 12.3424H28.0649V13.4687H20.3634V12.3424Z" fill="#1570EF"/>
<path d="M34.0458 29.846L27.5204 17.3419C27.2451 16.8159 26.5989 16.6102 26.068 16.8856L24.9573 17.4654C24.705 17.5978 24.5136 17.8249 24.4287 18.097C24.3435 18.3691 24.3698 18.6645 24.5009 18.9178L31.0273 31.4218C31.1598 31.6748 31.3869 31.8649 31.6589 31.9504C31.7642 31.9838 31.8734 32 31.9819 32C32.1542 32 32.3242 31.9589 32.48 31.8776L33.5897 31.2978C34.1161 31.0231 34.3201 30.373 34.0458 29.846Z" fill="#1570EF"/>
<path d="M30.4449 0H4.26163C1.91169 0 0 1.91169 0 4.26099V20.1547C0 22.504 1.91169 24.4157 4.26163 24.4157H23.5182C23.6591 24.4157 23.7903 24.3422 23.8628 24.2214C23.9363 24.1002 23.9415 23.9506 23.8755 23.8256L23.0327 22.2112C22.9633 22.0778 22.8257 21.9942 22.6754 21.9942H4.26163C3.24748 21.9942 2.4212 21.1689 2.4212 20.1547V4.26099C2.4212 3.24684 3.24748 2.42152 4.26163 2.42152H30.4449C31.4591 2.42152 32.285 3.24684 32.285 4.26099V21.2039C32.2682 22.2634 33.2898 22.4988 33.5126 22.4988C33.5126 22.4988 34.7066 22.3809 34.7066 21.2039V4.26099C34.7066 1.91169 32.7948 0 30.4449 0Z" fill="#1570EF"/>
</svg>
