<svg width="24" height="24" viewBox="0 0 24 24" fill="none" xmlns="http://www.w3.org/2000/svg">
<path d="M19.9628 16.4042L22.0225 10.225C23.8219 4.8269 24.7216 2.12787 23.2969 0.703144C21.8721 -0.721578 19.1731 0.178098 13.775 1.97745L7.59584 4.03719C3.23908 5.48944 1.0607 6.21556 0.44167 7.28038C-0.147223 8.29335 -0.147223 9.54443 0.44167 10.5574C1.0607 11.6222 3.23908 12.3483 7.59584 13.8006C8.13577 13.9806 8.74321 13.8521 9.14752 13.4515L15.7543 6.90594C16.126 6.5377 16.7258 6.54049 17.0941 6.91218C17.4623 7.28387 17.4595 7.8837 17.0878 8.25195L10.5877 14.6918C10.1421 15.1333 10.001 15.809 10.1994 16.4042C11.6516 20.7609 12.3778 22.9393 13.4426 23.5583C14.4556 24.1472 15.7066 24.1472 16.7196 23.5583C17.7844 22.9393 18.5106 20.7609 19.9628 16.4042Z" fill="white"/>
</svg>
